<?xml version="1.0" encoding="UTF-8" standalone="no"?>
<!DOCTYPE svg PUBLIC "-//W3C//DTD SVG 1.1//EN"
 "http://www.w3.org/Graphics/SVG/1.1/DTD/svg11.dtd">
<!-- Generated by graphviz version 2.43.0 (0)
 -->
<!-- Title: %3 Pages: 1 -->
<svg width="1576pt" height="328pt"
 viewBox="0.00 0.00 1575.99 327.91" xmlns="http://www.w3.org/2000/svg" xmlns:xlink="http://www.w3.org/1999/xlink">
<g id="graph0" class="graph" transform="scale(1 1) rotate(0) translate(4 323.91)">
<title>%3</title>
<polygon fill="white" stroke="transparent" points="-4,4 -4,-323.91 1571.99,-323.91 1571.99,4 -4,4"/>
<!-- eval0 -->
<g id="node1" class="node">
<title>eval0</title>
<ellipse fill="none" stroke="black" cx="1044.73" cy="-148.43" rx="523.02" ry="37.45"/>
<text text-anchor="middle" x="1044.73" y="-159.73" font-family="Times,serif" font-size="14.00">eval0</text>
<text text-anchor="middle" x="1044.73" y="-144.73" font-family="Times,serif" font-size="14.00">[eval] This operator eval(__code, *args, **kwargs) evaluates the code block, where __code is the cod...</text>
<text text-anchor="middle" x="1044.73" y="-129.73" font-family="Times,serif" font-size="14.00">[1, 2, 3, 4]</text>
</g>
<!-- eq0 -->
<g id="node2" class="node">
<title>eq0</title>
<ellipse fill="none" stroke="black" cx="647.73" cy="-37.48" rx="205.12" ry="37.45"/>
<text text-anchor="middle" x="647.73" y="-48.78" font-family="Times,serif" font-size="14.00">eq0</text>
<text text-anchor="middle" x="647.73" y="-33.78" font-family="Times,serif" font-size="14.00">[eq] This is an eq operator of x and y. .</text>
<text text-anchor="middle" x="647.73" y="-18.78" font-family="Times,serif" font-size="14.00">False</text>
</g>
<!-- eval0&#45;&gt;eq0 -->
<g id="edge1" class="edge">
<title>eval0&#45;&gt;eq0</title>
<path fill="none" stroke="black" d="M915.84,-112.06C868.59,-99.09 815.33,-84.47 768.8,-71.7"/>
<polygon fill="black" stroke="black" points="769.54,-68.28 758.97,-69.01 767.69,-75.03 769.54,-68.28"/>
</g>
<!-- list1 -->
<g id="node3" class="node">
<title>list1</title>
<ellipse fill="none" stroke="black" cx="251.73" cy="-148.43" rx="251.96" ry="37.45"/>
<text text-anchor="middle" x="251.73" y="-159.73" font-family="Times,serif" font-size="14.00">list1</text>
<text text-anchor="middle" x="251.73" y="-144.73" font-family="Times,serif" font-size="14.00">[Node] This is a node in a computational graph.</text>
<text text-anchor="middle" x="251.73" y="-129.73" font-family="Times,serif" font-size="14.00">[1, 4, 2, 3]</text>
</g>
<!-- list1&#45;&gt;eq0 -->
<g id="edge2" class="edge">
<title>list1&#45;&gt;eq0</title>
<path fill="none" stroke="black" d="M368.94,-115.18C418.65,-101.51 476.56,-85.57 526.68,-71.78"/>
<polygon fill="black" stroke="black" points="527.89,-75.08 536.6,-69.05 526.03,-68.33 527.89,-75.08"/>
</g>
<!-- list0 -->
<g id="node4" class="node">
<title>list0</title>
<ellipse fill="none" stroke="black" cx="782.73" cy="-270.91" rx="251.96" ry="37.45"/>
<text text-anchor="middle" x="782.73" y="-282.21" font-family="Times,serif" font-size="14.00">list0</text>
<text text-anchor="middle" x="782.73" y="-267.21" font-family="Times,serif" font-size="14.00">[Node] This is a node in a computational graph.</text>
<text text-anchor="middle" x="782.73" y="-252.21" font-family="Times,serif" font-size="14.00">[1, 2, 3, 4]</text>
</g>
<!-- list0&#45;&gt;eval0 -->
<g id="edge3" class="edge">
<title>list0&#45;&gt;eval0</title>
<path fill="none" stroke="black" d="M858.51,-235.06C889.19,-220.95 924.8,-204.58 956.63,-189.94"/>
<polygon fill="black" stroke="black" points="958.31,-193.02 965.93,-185.66 955.38,-186.66 958.31,-193.02"/>
</g>
<!-- __code0 -->
<g id="node5" class="node">
<title>__code0</title>
<polygon fill="lightgray" stroke="black" points="1561.23,-319.91 1052.23,-319.91 1052.23,-221.91 1561.23,-221.91 1561.23,-319.91"/>
<text text-anchor="middle" x="1306.73" y="-304.71" font-family="Times,serif" font-size="14.00">__code0</text>
<text text-anchor="middle" x="1306.73" y="-289.71" font-family="Times,serif" font-size="14.00">[ParameterNode] This is a ParameterNode in a computational graph.</text>
<text text-anchor="middle" x="1306.73" y="-274.71" font-family="Times,serif" font-size="14.00">def strange_sort_list(lst):</text>
<text text-anchor="middle" x="1306.73" y="-259.71" font-family="Times,serif" font-size="14.00"> &#160;&#160;&#160;&#39;&#39;&#39;</text>
<text text-anchor="middle" x="1306.73" y="-244.71" font-family="Times,serif" font-size="14.00"> &#160;&#160;&#160;Given list of integers, return list in strange order.</text>
<text text-anchor="middle" x="1306.73" y="-229.71" font-family="Times,serif" font-size="14.00"> &#160;&#160;&#160;St...</text>
</g>
<!-- __code0&#45;&gt;eval0 -->
<g id="edge4" class="edge">
<title>__code0&#45;&gt;eval0</title>
<path fill="none" stroke="black" d="M1202.05,-221.77C1179,-211.17 1154.82,-200.05 1132.51,-189.8"/>
<polygon fill="black" stroke="black" points="1133.96,-186.61 1123.41,-185.61 1131.03,-192.97 1133.96,-186.61"/>
</g>
</g>
</svg>