<?xml version="1.0" encoding="UTF-8" standalone="no"?>
<!DOCTYPE svg PUBLIC "-//W3C//DTD SVG 1.1//EN"
 "http://www.w3.org/Graphics/SVG/1.1/DTD/svg11.dtd">
<!-- Generated by graphviz version 2.50.0 (0)
 -->
<!-- Pages: 1 -->
<svg width="761pt" height="305pt"
 viewBox="0.00 0.00 761.15 304.86" xmlns="http://www.w3.org/2000/svg" xmlns:xlink="http://www.w3.org/1999/xlink">
<g id="graph0" class="graph" transform="scale(1 1) rotate(0) translate(4 300.86)">
<polygon fill="white" stroke="transparent" points="-4,4 -4,-300.86 757.15,-300.86 757.15,4 -4,4"/>
<!-- to_list0 -->
<g id="node1" class="node">
<title>to_list0</title>
<ellipse fill="none" stroke="black" cx="556.58" cy="-148.43" rx="145.83" ry="37.45"/>
<text text-anchor="middle" x="556.58" y="-159.73" font-family="Times New Roman,serif" font-size="14.00">to_list0</text>
<text text-anchor="middle" x="556.58" y="-144.73" font-family="Times New Roman,serif" font-size="14.00">[to_list] This converts x to a list. &#160;.</text>
<text text-anchor="middle" x="556.58" y="-129.73" font-family="Times New Roman,serif" font-size="14.00">[&#39;arg2&#39;, &#39;arg1&#39;]</text>
</g>
<!-- getitem1 -->
<g id="node2" class="node">
<title>getitem1</title>
<ellipse fill="none" stroke="black" cx="376.58" cy="-37.48" rx="234.52" ry="37.45"/>
<text text-anchor="middle" x="376.58" y="-48.78" font-family="Times New Roman,serif" font-size="14.00">getitem1</text>
<text text-anchor="middle" x="376.58" y="-33.78" font-family="Times New Roman,serif" font-size="14.00">[getitem] This is a getitem operator of x based on index. .</text>
<text text-anchor="middle" x="376.58" y="-18.78" font-family="Times New Roman,serif" font-size="14.00">arg1</text>
</g>
<!-- to_list0&#45;&gt;getitem1 -->
<g id="edge1" class="edge">
<title>to_list0&#45;&gt;getitem1</title>
<path fill="none" stroke="black" d="M500.61,-113.55C482.61,-102.66 462.49,-90.48 443.77,-79.15"/>
<polygon fill="black" stroke="black" points="445.36,-76.02 435,-73.84 441.74,-82.01 445.36,-76.02"/>
</g>
<!-- int15 -->
<g id="node3" class="node">
<title>int15</title>
<ellipse fill="none" stroke="black" cx="196.58" cy="-148.43" rx="196.65" ry="37.45"/>
<text text-anchor="middle" x="196.58" y="-159.73" font-family="Times New Roman,serif" font-size="14.00">int15</text>
<text text-anchor="middle" x="196.58" y="-144.73" font-family="Times New Roman,serif" font-size="14.00">[Node] This is a node in a computational graph.</text>
<text text-anchor="middle" x="196.58" y="-129.73" font-family="Times New Roman,serif" font-size="14.00">1</text>
</g>
<!-- int15&#45;&gt;getitem1 -->
<g id="edge2" class="edge">
<title>int15&#45;&gt;getitem1</title>
<path fill="none" stroke="black" d="M254.52,-112.36C272.01,-101.77 291.35,-90.06 309.39,-79.15"/>
<polygon fill="black" stroke="black" points="311.38,-82.03 318.12,-73.86 307.76,-76.04 311.38,-82.03"/>
</g>
<!-- set0 -->
<g id="node4" class="node">
<title>set0</title>
<ellipse fill="none" stroke="black" cx="556.58" cy="-259.38" rx="196.65" ry="37.45"/>
<text text-anchor="middle" x="556.58" y="-270.68" font-family="Times New Roman,serif" font-size="14.00">set0</text>
<text text-anchor="middle" x="556.58" y="-255.68" font-family="Times New Roman,serif" font-size="14.00">[Node] This is a node in a computational graph.</text>
<text text-anchor="middle" x="556.58" y="-240.68" font-family="Times New Roman,serif" font-size="14.00">{&#39;arg2&#39;, &#39;arg1&#39;}</text>
</g>
<!-- set0&#45;&gt;to_list0 -->
<g id="edge3" class="edge">
<title>set0&#45;&gt;to_list0</title>
<path fill="none" stroke="black" d="M556.58,-221.8C556.58,-213.63 556.58,-204.85 556.58,-196.32"/>
<polygon fill="black" stroke="black" points="560.08,-196.1 556.58,-186.1 553.08,-196.1 560.08,-196.1"/>
</g>
</g>
</svg>