<?xml version="1.0" encoding="UTF-8" standalone="no"?>
<!DOCTYPE svg PUBLIC "-//W3C//DTD SVG 1.1//EN"
 "http://www.w3.org/Graphics/SVG/1.1/DTD/svg11.dtd">
<!-- Generated by graphviz version 2.43.0 (0)
 -->
<!-- Title: %3 Pages: 1 -->
<svg width="1248pt" height="313pt"
 viewBox="0.00 0.00 1247.73 312.91" xmlns="http://www.w3.org/2000/svg" xmlns:xlink="http://www.w3.org/1999/xlink">
<g id="graph0" class="graph" transform="scale(1 1) rotate(0) translate(4 308.91)">
<title>%3</title>
<polygon fill="white" stroke="transparent" points="-4,4 -4,-308.91 1243.73,-308.91 1243.73,4 -4,4"/>
<!-- eval0 -->
<g id="node1" class="node">
<title>eval0</title>
<ellipse fill="#deebf6" stroke="#5c9bd5" stroke-width="1.2" cx="792.73" cy="-148.43" rx="270.64" ry="37.45"/>
<text text-anchor="middle" x="792.73" y="-159.73" font-family="Times,serif" font-size="14.00">eval0</text>
<text text-anchor="middle" x="792.73" y="-144.73" font-family="Times,serif" font-size="14.00">[eval] This operator eval(__code, *args, **kwargs)...</text>
<text text-anchor="middle" x="792.73" y="-129.73" font-family="Times,serif" font-size="14.00">[1, 2, 3, 4]</text>
</g>
<!-- eq0 -->
<g id="node2" class="node">
<title>eq0</title>
<ellipse fill="#deebf6" stroke="#5c9bd5" stroke-width="1.2" cx="521.73" cy="-37.48" rx="205.12" ry="37.45"/>
<text text-anchor="middle" x="521.73" y="-48.78" font-family="Times,serif" font-size="14.00">eq0</text>
<text text-anchor="middle" x="521.73" y="-33.78" font-family="Times,serif" font-size="14.00">[eq] This is an eq operator of x and y. .</text>
<text text-anchor="middle" x="521.73" y="-18.78" font-family="Times,serif" font-size="14.00">False</text>
</g>
<!-- eval0&#45;&gt;eq0 -->
<g id="edge1" class="edge">
<title>eval0&#45;&gt;eq0</title>
<path fill="none" stroke="black" d="M706.61,-112.81C677.24,-101 644.29,-87.75 614.43,-75.74"/>
<polygon fill="black" stroke="black" points="615.43,-72.38 604.85,-71.89 612.82,-78.87 615.43,-72.38"/>
</g>
<!-- list1 -->
<g id="node3" class="node">
<title>list1</title>
<ellipse fill="#deebf6" stroke="#5c9bd5" stroke-width="1.2" cx="251.73" cy="-148.43" rx="251.96" ry="37.45"/>
<text text-anchor="middle" x="251.73" y="-159.73" font-family="Times,serif" font-size="14.00">list1</text>
<text text-anchor="middle" x="251.73" y="-144.73" font-family="Times,serif" font-size="14.00">[Node] This is a node in a computational graph.</text>
<text text-anchor="middle" x="251.73" y="-129.73" font-family="Times,serif" font-size="14.00">[1, 4, 2, 3]</text>
</g>
<!-- list1&#45;&gt;eq0 -->
<g id="edge2" class="edge">
<title>list1&#45;&gt;eq0</title>
<path fill="none" stroke="black" d="M336.79,-113.11C366.22,-101.23 399.34,-87.87 429.33,-75.76"/>
<polygon fill="black" stroke="black" points="430.98,-78.87 438.95,-71.88 428.36,-72.38 430.98,-78.87"/>
</g>
<!-- list0 -->
<g id="node4" class="node">
<title>list0</title>
<ellipse fill="#deebf6" stroke="#5c9bd5" stroke-width="1.2" cx="553.73" cy="-263.41" rx="251.96" ry="37.45"/>
<text text-anchor="middle" x="553.73" y="-274.71" font-family="Times,serif" font-size="14.00">list0</text>
<text text-anchor="middle" x="553.73" y="-259.71" font-family="Times,serif" font-size="14.00">[Node] This is a node in a computational graph.</text>
<text text-anchor="middle" x="553.73" y="-244.71" font-family="Times,serif" font-size="14.00">[1, 2, 3, 4]</text>
</g>
<!-- list0&#45;&gt;eval0 -->
<g id="edge3" class="edge">
<title>list0&#45;&gt;eval0</title>
<path fill="none" stroke="black" d="M627.71,-227.43C653.47,-215.26 682.54,-201.52 709.02,-189"/>
<polygon fill="black" stroke="black" points="710.73,-192.06 718.27,-184.63 707.74,-185.74 710.73,-192.06"/>
</g>
<!-- __code0 -->
<g id="node5" class="node">
<title>__code0</title>
<polygon fill="#ffe5e5" stroke="#ff7e79" stroke-width="1.2" points="1239.73,-304.91 823.73,-304.91 823.73,-221.91 1239.73,-221.91 1239.73,-304.91"/>
<text text-anchor="middle" x="1031.73" y="-289.71" font-family="Times,serif" font-size="14.00">__code0</text>
<text text-anchor="middle" x="1031.73" y="-274.71" font-family="Times,serif" font-size="14.00">[ParameterNode] This is a ParameterNode in a compu...</text>
<text text-anchor="middle" x="1031.73" y="-259.71" font-family="Times,serif" font-size="14.00">def strange_sort_list(lst):</text>
<text text-anchor="middle" x="1031.73" y="-244.71" font-family="Times,serif" font-size="14.00"> &#160;&#160;&#160;&#39;&#39;&#39;</text>
<text text-anchor="middle" x="1031.73" y="-229.71" font-family="Times,serif" font-size="14.00"> &#160;&#160;&#160;Given list...</text>
</g>
<!-- __code0&#45;&gt;eval0 -->
<g id="edge4" class="edge">
<title>__code0&#45;&gt;eval0</title>
<path fill="none" stroke="black" d="M945.78,-221.78C923.2,-211.1 898.88,-199.61 876.41,-188.99"/>
<polygon fill="black" stroke="black" points="877.78,-185.76 867.25,-184.65 874.79,-192.09 877.78,-185.76"/>
</g>
</g>
</svg>