<?xml version="1.0" encoding="UTF-8" standalone="no"?>
<!DOCTYPE svg PUBLIC "-//W3C//DTD SVG 1.1//EN"
 "http://www.w3.org/Graphics/SVG/1.1/DTD/svg11.dtd">
<!-- Generated by graphviz version 2.43.0 (0)
 -->
<!-- Title: %3 Pages: 1 -->
<svg width="701pt" height="305pt"
 viewBox="0.00 0.00 701.04 304.86" xmlns="http://www.w3.org/2000/svg" xmlns:xlink="http://www.w3.org/1999/xlink">
<g id="graph0" class="graph" transform="scale(1 1) rotate(0) translate(4 300.86)">
<title>%3</title>
<polygon fill="white" stroke="transparent" points="-4,4 -4,-300.86 697.04,-300.86 697.04,4 -4,4"/>
<!-- eval8 -->
<g id="node1" class="node">
<title>eval8</title>
<ellipse fill="#deebf6" stroke="#5c9bd5" stroke-width="1.2" cx="449.54" cy="-148.43" rx="144.5" ry="37.45"/>
<text text-anchor="middle" x="449.54" y="-159.73" font-family="Times,serif" font-size="14.00">eval8</text>
<text text-anchor="middle" x="449.54" y="-144.73" font-family="Times,serif" font-size="14.00">[eval] This operator eval...</text>
<text text-anchor="middle" x="449.54" y="-129.73" font-family="Times,serif" font-size="14.00">[1, 2, 3, 4]</text>
</g>
<!-- eq5 -->
<g id="node2" class="node">
<title>eq5</title>
<ellipse fill="#deebf6" stroke="#5c9bd5" stroke-width="1.2" cx="296.54" cy="-37.48" rx="143.59" ry="37.45"/>
<text text-anchor="middle" x="296.54" y="-48.78" font-family="Times,serif" font-size="14.00">eq5</text>
<text text-anchor="middle" x="296.54" y="-33.78" font-family="Times,serif" font-size="14.00">[eq] This is an eq operat...</text>
<text text-anchor="middle" x="296.54" y="-18.78" font-family="Times,serif" font-size="14.00">False</text>
</g>
<!-- eval8&#45;&gt;eq5 -->
<g id="edge1" class="edge">
<title>eval8&#45;&gt;eq5</title>
<path fill="none" stroke="black" d="M401.13,-112.96C385.99,-102.17 369.14,-90.18 353.47,-79.01"/>
<polygon fill="black" stroke="black" points="355.08,-75.86 344.9,-72.91 351.02,-81.56 355.08,-75.86"/>
</g>
<!-- list5 -->
<g id="node3" class="node">
<title>list5</title>
<ellipse fill="#deebf6" stroke="#5c9bd5" stroke-width="1.2" cx="143.54" cy="-148.43" rx="143.59" ry="37.45"/>
<text text-anchor="middle" x="143.54" y="-159.73" font-family="Times,serif" font-size="14.00">list5</text>
<text text-anchor="middle" x="143.54" y="-144.73" font-family="Times,serif" font-size="14.00">[Node] This is a node in ...</text>
<text text-anchor="middle" x="143.54" y="-129.73" font-family="Times,serif" font-size="14.00">[1, 4, 2, 3]</text>
</g>
<!-- list5&#45;&gt;eq5 -->
<g id="edge2" class="edge">
<title>list5&#45;&gt;eq5</title>
<path fill="none" stroke="black" d="M191.95,-112.96C207.1,-102.17 223.94,-90.18 239.62,-79.01"/>
<polygon fill="black" stroke="black" points="242.07,-81.56 248.19,-72.91 238.01,-75.86 242.07,-81.56"/>
</g>
<!-- list4 -->
<g id="node4" class="node">
<title>list4</title>
<ellipse fill="#deebf6" stroke="#5c9bd5" stroke-width="1.2" cx="314.54" cy="-259.38" rx="143.59" ry="37.45"/>
<text text-anchor="middle" x="314.54" y="-270.68" font-family="Times,serif" font-size="14.00">list4</text>
<text text-anchor="middle" x="314.54" y="-255.68" font-family="Times,serif" font-size="14.00">[Node] This is a node in ...</text>
<text text-anchor="middle" x="314.54" y="-240.68" font-family="Times,serif" font-size="14.00">[1, 2, 3, 4]</text>
</g>
<!-- list4&#45;&gt;eval8 -->
<g id="edge3" class="edge">
<title>list4&#45;&gt;eval8</title>
<path fill="none" stroke="black" d="M357.63,-223.61C370.66,-213.09 385.09,-201.45 398.58,-190.56"/>
<polygon fill="black" stroke="black" points="400.82,-193.25 406.4,-184.25 396.42,-187.8 400.82,-193.25"/>
</g>
<!-- __code0 -->
<g id="node5" class="node">
<title>__code0</title>
<polygon fill="#ffe5e5" stroke="#ff7e79" stroke-width="1.2" points="693.04,-285.88 476.04,-285.88 476.04,-232.88 693.04,-232.88 693.04,-285.88"/>
<text text-anchor="middle" x="584.54" y="-270.68" font-family="Times,serif" font-size="14.00">__code0</text>
<text text-anchor="middle" x="584.54" y="-255.68" font-family="Times,serif" font-size="14.00">[ParameterNode] This is a...</text>
<text text-anchor="middle" x="584.54" y="-240.68" font-family="Times,serif" font-size="14.00">def strange_sort_list(lst...</text>
</g>
<!-- __code0&#45;&gt;eval8 -->
<g id="edge4" class="edge">
<title>__code0&#45;&gt;eval8</title>
<path fill="none" stroke="black" d="M552.89,-232.84C537.35,-220.29 518.23,-204.86 500.68,-190.7"/>
<polygon fill="black" stroke="black" points="502.73,-187.86 492.75,-184.3 498.33,-193.3 502.73,-187.86"/>
</g>
</g>
</svg>