<?xml version="1.0" encoding="UTF-8" standalone="no"?>
<!DOCTYPE svg PUBLIC "-//W3C//DTD SVG 1.1//EN"
 "http://www.w3.org/Graphics/SVG/1.1/DTD/svg11.dtd">
<!-- Generated by graphviz version 2.50.0 (0)
 -->
<!-- Pages: 1 -->
<svg width="841pt" height="305pt"
 viewBox="0.00 0.00 841.11 304.86" xmlns="http://www.w3.org/2000/svg" xmlns:xlink="http://www.w3.org/1999/xlink">
<g id="graph0" class="graph" transform="scale(1 1) rotate(0) translate(4 300.86)">
<polygon fill="white" stroke="transparent" points="-4,4 -4,-300.86 837.11,-300.86 837.11,4 -4,4"/>
<!-- self1 -->
<g id="node1" class="node">
<title>self1</title>
<ellipse fill="#deebf6" stroke="#5c9bd5" stroke-width="1.2" cx="130.11" cy="-148.43" rx="130.22" ry="37.45"/>
<text text-anchor="middle" x="130.11" y="-159.73" font-family="Times,serif" font-size="14.00">self1</text>
<text text-anchor="middle" x="130.11" y="-144.73" font-family="Times,serif" font-size="14.00">[Node] This is a nod...</text>
<text text-anchor="middle" x="130.11" y="-129.73" font-family="Times,serif" font-size="14.00">&lt;opto.trace.modules....</text>
</g>
<!-- eval1 -->
<g id="node2" class="node">
<title>eval1</title>
<ellipse fill="#deebf6" stroke="#5c9bd5" stroke-width="1.2" cx="362.11" cy="-37.48" rx="119.5" ry="37.45"/>
<text text-anchor="middle" x="362.11" y="-48.78" font-family="Times,serif" font-size="14.00">eval1</text>
<text text-anchor="middle" x="362.11" y="-33.78" font-family="Times,serif" font-size="14.00">[eval] This operator...</text>
<text text-anchor="middle" x="362.11" y="-18.78" font-family="Times,serif" font-size="14.00">None</text>
</g>
<!-- self1&#45;&gt;eval1 -->
<g id="edge1" class="edge">
<title>self1&#45;&gt;eval1</title>
<path fill="none" stroke="black" d="M196.59,-116.21C225.1,-102.82 258.53,-87.12 287.85,-73.35"/>
<polygon fill="black" stroke="black" points="289.65,-76.37 297.22,-68.95 286.68,-70.03 289.65,-76.37"/>
</g>
<!-- list0 -->
<g id="node3" class="node">
<title>list0</title>
<ellipse fill="#deebf6" stroke="#5c9bd5" stroke-width="1.2" cx="227.11" cy="-259.38" rx="122.16" ry="37.45"/>
<text text-anchor="middle" x="227.11" y="-270.68" font-family="Times,serif" font-size="14.00">list0</text>
<text text-anchor="middle" x="227.11" y="-255.68" font-family="Times,serif" font-size="14.00">[Node] This is a nod...</text>
<text text-anchor="middle" x="227.11" y="-240.68" font-family="Times,serif" font-size="14.00">[[&#39;O&#39;, &#39;.&#39;, &#39;.&#39;, &#39;.&#39;...</text>
</g>
<!-- list0&#45;&gt;eval1 -->
<g id="edge2" class="edge">
<title>list0&#45;&gt;eval1</title>
<path fill="none" stroke="black" d="M248.44,-222.48C255.19,-210.88 262.59,-197.92 269.11,-185.91 286.92,-153.08 287.29,-142.61 307.11,-110.95 313.13,-101.32 320.12,-91.38 327.04,-82.07"/>
<polygon fill="black" stroke="black" points="329.85,-84.15 333.09,-74.06 324.27,-79.93 329.85,-84.15"/>
</g>
<!-- eval0 -->
<g id="node4" class="node">
<title>eval0</title>
<ellipse fill="#deebf6" stroke="#5c9bd5" stroke-width="1.2" cx="436.11" cy="-148.43" rx="119.5" ry="37.45"/>
<text text-anchor="middle" x="436.11" y="-159.73" font-family="Times,serif" font-size="14.00">eval0</text>
<text text-anchor="middle" x="436.11" y="-144.73" font-family="Times,serif" font-size="14.00">[eval] This operator...</text>
<text text-anchor="middle" x="436.11" y="-129.73" font-family="Times,serif" font-size="14.00">None</text>
</g>
<!-- list0&#45;&gt;eval0 -->
<g id="edge6" class="edge">
<title>list0&#45;&gt;eval0</title>
<path fill="none" stroke="black" d="M287.84,-226.72C312.53,-213.85 341.2,-198.91 366.71,-185.61"/>
<polygon fill="black" stroke="black" points="368.34,-188.71 375.59,-180.98 365.1,-182.5 368.34,-188.71"/>
</g>
<!-- eval0&#45;&gt;eval1 -->
<g id="edge3" class="edge">
<title>eval0&#45;&gt;eval1</title>
<path fill="none" stroke="black" d="M411.67,-111.45C405.48,-102.34 398.76,-92.45 392.33,-82.97"/>
<polygon fill="black" stroke="black" points="395.03,-80.72 386.52,-74.42 389.24,-84.66 395.03,-80.72"/>
</g>
<!-- __code0 -->
<g id="node5" class="node">
<title>__code0</title>
<polygon fill="#ffe5e5" stroke="#ff7e79" stroke-width="1.2" points="762.11,-174.93 574.11,-174.93 574.11,-121.93 762.11,-121.93 762.11,-174.93"/>
<text text-anchor="middle" x="668.11" y="-159.73" font-family="Times,serif" font-size="14.00">__code0</text>
<text text-anchor="middle" x="668.11" y="-144.73" font-family="Times,serif" font-size="14.00">[ParameterNode] This...</text>
<text text-anchor="middle" x="668.11" y="-129.73" font-family="Times,serif" font-size="14.00">def select_coordinat...</text>
</g>
<!-- __code0&#45;&gt;eval1 -->
<g id="edge4" class="edge">
<title>__code0&#45;&gt;eval1</title>
<path fill="none" stroke="black" d="M596.36,-121.89C552.32,-106.2 495.62,-86.02 449.04,-69.43"/>
<polygon fill="black" stroke="black" points="450.16,-66.11 439.56,-66.06 447.81,-72.71 450.16,-66.11"/>
</g>
<!-- self0 -->
<g id="node6" class="node">
<title>self0</title>
<ellipse fill="#deebf6" stroke="#5c9bd5" stroke-width="1.2" cx="497.11" cy="-259.38" rx="130.22" ry="37.45"/>
<text text-anchor="middle" x="497.11" y="-270.68" font-family="Times,serif" font-size="14.00">self0</text>
<text text-anchor="middle" x="497.11" y="-255.68" font-family="Times,serif" font-size="14.00">[Node] This is a nod...</text>
<text text-anchor="middle" x="497.11" y="-240.68" font-family="Times,serif" font-size="14.00">&lt;opto.trace.modules....</text>
</g>
<!-- self0&#45;&gt;eval0 -->
<g id="edge5" class="edge">
<title>self0&#45;&gt;eval0</title>
<path fill="none" stroke="black" d="M476.8,-222.1C471.81,-213.19 466.4,-203.54 461.22,-194.28"/>
<polygon fill="black" stroke="black" points="464.27,-192.57 456.33,-185.55 458.16,-195.99 464.27,-192.57"/>
</g>
<!-- __code1 -->
<g id="node7" class="node">
<title>__code1</title>
<polygon fill="#ffe5e5" stroke="#ff7e79" stroke-width="1.2" points="833.11,-285.88 645.11,-285.88 645.11,-232.88 833.11,-232.88 833.11,-285.88"/>
<text text-anchor="middle" x="739.11" y="-270.68" font-family="Times,serif" font-size="14.00">__code1</text>
<text text-anchor="middle" x="739.11" y="-255.68" font-family="Times,serif" font-size="14.00">[ParameterNode] This...</text>
<text text-anchor="middle" x="739.11" y="-240.68" font-family="Times,serif" font-size="14.00">def reason(self, map...</text>
</g>
<!-- __code1&#45;&gt;eval0 -->
<g id="edge7" class="edge">
<title>__code1&#45;&gt;eval0</title>
<path fill="none" stroke="black" d="M668.07,-232.84C624.63,-217.22 568.76,-197.13 522.74,-180.58"/>
<polygon fill="black" stroke="black" points="523.67,-177.2 513.07,-177.11 521.3,-183.78 523.67,-177.2"/>
</g>
</g>
</svg>