<?xml version="1.0" encoding="UTF-8" standalone="no"?>
<!DOCTYPE svg PUBLIC "-//W3C//DTD SVG 1.1//EN"
 "http://www.w3.org/Graphics/SVG/1.1/DTD/svg11.dtd">
<!-- Generated by graphviz version 2.50.0 (0)
 -->
<!-- Pages: 1 -->
<svg width="1223pt" height="305pt"
 viewBox="0.00 0.00 1223.15 304.86" xmlns="http://www.w3.org/2000/svg" xmlns:xlink="http://www.w3.org/1999/xlink">
<g id="graph0" class="graph" transform="scale(1 1) rotate(0) translate(4 300.86)">
<polygon fill="white" stroke="transparent" points="-4,4 -4,-300.86 1219.15,-300.86 1219.15,4 -4,4"/>
<!-- add0 -->
<g id="node1" class="node">
<title>add0</title>
<ellipse fill="#deebf6" stroke="#5c9bd5" stroke-width="1.2" cx="426.58" cy="-148.43" rx="171.65" ry="37.45"/>
<text text-anchor="middle" x="426.58" y="-159.73" font-family="Times New Roman,serif" font-size="14.00">add0</text>
<text text-anchor="middle" x="426.58" y="-144.73" font-family="Times New Roman,serif" font-size="14.00">[add] This is an add operator of x and y. .</text>
<text text-anchor="middle" x="426.58" y="-129.73" font-family="Times New Roman,serif" font-size="14.00">3</text>
</g>
<!-- add2 -->
<g id="node2" class="node">
<title>add2</title>
<ellipse fill="#deebf6" stroke="#5c9bd5" stroke-width="1.2" cx="607.58" cy="-37.48" rx="171.65" ry="37.45"/>
<text text-anchor="middle" x="607.58" y="-48.78" font-family="Times New Roman,serif" font-size="14.00">add2</text>
<text text-anchor="middle" x="607.58" y="-33.78" font-family="Times New Roman,serif" font-size="14.00">[add] This is an add operator of x and y. .</text>
<text text-anchor="middle" x="607.58" y="-18.78" font-family="Times New Roman,serif" font-size="14.00">5</text>
</g>
<!-- add0&#45;&gt;add2 -->
<g id="edge1" class="edge">
<title>add0&#45;&gt;add2</title>
<path fill="none" stroke="black" d="M483.85,-112.96C502.26,-101.87 522.8,-89.51 541.77,-78.09"/>
<polygon fill="black" stroke="black" points="543.61,-81.07 550.37,-72.91 540,-75.07 543.61,-81.07"/>
</g>
<!-- add1 -->
<g id="node3" class="node">
<title>add1</title>
<ellipse fill="#deebf6" stroke="#5c9bd5" stroke-width="1.2" cx="788.58" cy="-148.43" rx="171.65" ry="37.45"/>
<text text-anchor="middle" x="788.58" y="-159.73" font-family="Times New Roman,serif" font-size="14.00">add1</text>
<text text-anchor="middle" x="788.58" y="-144.73" font-family="Times New Roman,serif" font-size="14.00">[add] This is an add operator of x and y. .</text>
<text text-anchor="middle" x="788.58" y="-129.73" font-family="Times New Roman,serif" font-size="14.00">2</text>
</g>
<!-- add1&#45;&gt;add2 -->
<g id="edge2" class="edge">
<title>add1&#45;&gt;add2</title>
<path fill="none" stroke="black" d="M731.31,-112.96C712.89,-101.87 692.35,-89.51 673.38,-78.09"/>
<polygon fill="black" stroke="black" points="675.16,-75.07 664.78,-72.91 671.55,-81.07 675.16,-75.07"/>
</g>
<!-- node_x0 -->
<g id="node4" class="node">
<title>node_x0</title>
<ellipse fill="#deebf6" stroke="#5c9bd5" stroke-width="1.2" cx="607.58" cy="-259.38" rx="196.65" ry="37.45"/>
<text text-anchor="middle" x="607.58" y="-270.68" font-family="Times New Roman,serif" font-size="14.00">node_x0</text>
<text text-anchor="middle" x="607.58" y="-255.68" font-family="Times New Roman,serif" font-size="14.00">[Node] This is a node in a computational graph.</text>
<text text-anchor="middle" x="607.58" y="-240.68" font-family="Times New Roman,serif" font-size="14.00">1</text>
</g>
<!-- node_x0&#45;&gt;add0 -->
<g id="edge5" class="edge">
<title>node_x0&#45;&gt;add0</title>
<path fill="none" stroke="black" d="M549.31,-223.31C531.2,-212.41 511.11,-200.31 492.51,-189.12"/>
<polygon fill="black" stroke="black" points="494.18,-186.04 483.8,-183.88 490.57,-192.03 494.18,-186.04"/>
</g>
<!-- node_x0&#45;&gt;add1 -->
<g id="edge3" class="edge">
<title>node_x0&#45;&gt;add1</title>
<path fill="none" stroke="black" d="M665.84,-223.31C683.95,-212.41 704.04,-200.31 722.64,-189.12"/>
<polygon fill="black" stroke="black" points="724.58,-192.03 731.35,-183.88 720.97,-186.04 724.58,-192.03"/>
</g>
<!-- int0 -->
<g id="node5" class="node">
<title>int0</title>
<ellipse fill="#deebf6" stroke="#5c9bd5" stroke-width="1.2" cx="1018.58" cy="-259.38" rx="196.65" ry="37.45"/>
<text text-anchor="middle" x="1018.58" y="-270.68" font-family="Times New Roman,serif" font-size="14.00">int0</text>
<text text-anchor="middle" x="1018.58" y="-255.68" font-family="Times New Roman,serif" font-size="14.00">[Node] This is a node in a computational graph.</text>
<text text-anchor="middle" x="1018.58" y="-240.68" font-family="Times New Roman,serif" font-size="14.00">1</text>
</g>
<!-- int0&#45;&gt;add1 -->
<g id="edge4" class="edge">
<title>int0&#45;&gt;add1</title>
<path fill="none" stroke="black" d="M946.75,-224.36C921.86,-212.57 893.82,-199.29 868.33,-187.21"/>
<polygon fill="black" stroke="black" points="869.61,-183.94 859.07,-182.82 866.61,-190.27 869.61,-183.94"/>
</g>
<!-- node_y0 -->
<g id="node6" class="node">
<title>node_y0</title>
<ellipse fill="#deebf6" stroke="#5c9bd5" stroke-width="1.2" cx="196.58" cy="-259.38" rx="196.65" ry="37.45"/>
<text text-anchor="middle" x="196.58" y="-270.68" font-family="Times New Roman,serif" font-size="14.00">node_y0</text>
<text text-anchor="middle" x="196.58" y="-255.68" font-family="Times New Roman,serif" font-size="14.00">[Node] This is a node in a computational graph.</text>
<text text-anchor="middle" x="196.58" y="-240.68" font-family="Times New Roman,serif" font-size="14.00">2</text>
</g>
<!-- node_y0&#45;&gt;add0 -->
<g id="edge6" class="edge">
<title>node_y0&#45;&gt;add0</title>
<path fill="none" stroke="black" d="M268.4,-224.36C293.29,-212.57 321.33,-199.29 346.82,-187.21"/>
<polygon fill="black" stroke="black" points="348.54,-190.27 356.08,-182.82 345.55,-183.94 348.54,-190.27"/>
</g>
</g>
</svg>