<?xml version="1.0" encoding="UTF-8" standalone="no"?>
<!DOCTYPE svg PUBLIC "-//W3C//DTD SVG 1.1//EN"
 "http://www.w3.org/Graphics/SVG/1.1/DTD/svg11.dtd">
<!-- Generated by graphviz version 2.50.0 (0)
 -->
<!-- Pages: 1 -->
<svg width="1179pt" height="394pt"
 viewBox="0.00 0.00 1179.50 393.86" xmlns="http://www.w3.org/2000/svg" xmlns:xlink="http://www.w3.org/1999/xlink">
<g id="graph0" class="graph" transform="scale(1 1) rotate(0) translate(4 389.86)">
<polygon fill="white" stroke="transparent" points="-4,4 -4,-389.86 1175.5,-389.86 1175.5,4 -4,4"/>
<!-- abs0 -->
<g id="node1" class="node">
<title>abs0</title>
<ellipse fill="#deebf6" stroke="#5c9bd5" stroke-width="1.2" cx="205.77" cy="-148.43" rx="205.54" ry="37.45"/>
<text text-anchor="middle" x="205.77" y="-159.73" font-family="Times,serif" font-size="14.00">abs0</text>
<text text-anchor="middle" x="205.77" y="-144.73" font-family="Times,serif" font-size="14.00">[abs] .</text>
<text text-anchor="middle" x="205.77" y="-129.73" font-family="Times,serif" font-size="14.00">tensor(1., grad_fn=&lt;AbsBackward0&gt;)</text>
</g>
<!-- add0 -->
<g id="node2" class="node">
<title>add0</title>
<ellipse fill="#deebf6" stroke="#5c9bd5" stroke-width="1.2" cx="446.77" cy="-37.48" rx="232.78" ry="37.45"/>
<text text-anchor="middle" x="446.77" y="-48.78" font-family="Times,serif" font-size="14.00">add0</text>
<text text-anchor="middle" x="446.77" y="-33.78" font-family="Times,serif" font-size="14.00">[add] This is an add operator of x and y. .</text>
<text text-anchor="middle" x="446.77" y="-18.78" font-family="Times,serif" font-size="14.00">tensor(1.5000, grad_fn=&lt;AddBackward0&gt;)</text>
</g>
<!-- abs0&#45;&gt;add0 -->
<g id="edge1" class="edge">
<title>abs0&#45;&gt;add0</title>
<path fill="none" stroke="black" d="M281.03,-113.4C306.48,-101.9 335.08,-88.97 361.27,-77.13"/>
<polygon fill="black" stroke="black" points="362.75,-80.3 370.42,-72.99 359.86,-73.92 362.75,-80.3"/>
</g>
<!-- multiply0 -->
<g id="node3" class="node">
<title>multiply0</title>
<ellipse fill="#deebf6" stroke="#5c9bd5" stroke-width="1.2" cx="687.77" cy="-148.43" rx="258.19" ry="37.45"/>
<text text-anchor="middle" x="687.77" y="-159.73" font-family="Times,serif" font-size="14.00">multiply0</text>
<text text-anchor="middle" x="687.77" y="-144.73" font-family="Times,serif" font-size="14.00">[multiply] This is a multiply operator of x and y. .</text>
<text text-anchor="middle" x="687.77" y="-129.73" font-family="Times,serif" font-size="14.00">tensor(0.5000, grad_fn=&lt;MulBackward0&gt;)</text>
</g>
<!-- multiply0&#45;&gt;add0 -->
<g id="edge2" class="edge">
<title>multiply0&#45;&gt;add0</title>
<path fill="none" stroke="black" d="M610.52,-112.51C585.63,-101.25 557.9,-88.72 532.44,-77.21"/>
<polygon fill="black" stroke="black" points="533.72,-73.95 523.17,-73.02 530.84,-80.32 533.72,-73.95"/>
</g>
<!-- square0 -->
<g id="node4" class="node">
<title>square0</title>
<ellipse fill="#deebf6" stroke="#5c9bd5" stroke-width="1.2" cx="441.77" cy="-259.38" rx="207.78" ry="37.45"/>
<text text-anchor="middle" x="441.77" y="-270.68" font-family="Times,serif" font-size="14.00">square0</text>
<text text-anchor="middle" x="441.77" y="-255.68" font-family="Times,serif" font-size="14.00">[square] .</text>
<text text-anchor="middle" x="441.77" y="-240.68" font-family="Times,serif" font-size="14.00">tensor(1., grad_fn=&lt;PowBackward0&gt;)</text>
</g>
<!-- square0&#45;&gt;multiply0 -->
<g id="edge3" class="edge">
<title>square0&#45;&gt;multiply0</title>
<path fill="none" stroke="black" d="M518.26,-224.51C544.12,-213.05 573.2,-200.17 599.88,-188.36"/>
<polygon fill="black" stroke="black" points="601.48,-191.48 609.21,-184.23 598.64,-185.07 601.48,-191.48"/>
</g>
<!-- Tensor1 -->
<g id="node5" class="node">
<title>Tensor1</title>
<ellipse fill="#deebf6" stroke="#5c9bd5" stroke-width="1.2" cx="919.77" cy="-259.38" rx="251.96" ry="37.45"/>
<text text-anchor="middle" x="919.77" y="-270.68" font-family="Times,serif" font-size="14.00">Tensor1</text>
<text text-anchor="middle" x="919.77" y="-255.68" font-family="Times,serif" font-size="14.00">[Node] This is a node in a computational graph.</text>
<text text-anchor="middle" x="919.77" y="-240.68" font-family="Times,serif" font-size="14.00">tensor(0.5000, requires_grad=True)</text>
</g>
<!-- Tensor1&#45;&gt;multiply0 -->
<g id="edge4" class="edge">
<title>Tensor1&#45;&gt;multiply0</title>
<path fill="none" stroke="black" d="M845.4,-223.46C821.78,-212.37 795.5,-200.03 771.28,-188.65"/>
<polygon fill="black" stroke="black" points="772.65,-185.43 762.11,-184.34 769.67,-191.76 772.65,-185.43"/>
</g>
<!-- Tensor0 -->
<g id="node6" class="node">
<title>Tensor0</title>
<polygon fill="#ffe5e5" stroke="#ff7e79" stroke-width="1.2" points="578.27,-385.86 69.27,-385.86 69.27,-332.86 578.27,-332.86 578.27,-385.86"/>
<text text-anchor="middle" x="323.77" y="-370.66" font-family="Times,serif" font-size="14.00">Tensor0</text>
<text text-anchor="middle" x="323.77" y="-355.66" font-family="Times,serif" font-size="14.00">[ParameterNode] This is a ParameterNode in a computational graph.</text>
<text text-anchor="middle" x="323.77" y="-340.66" font-family="Times,serif" font-size="14.00">tensor(1., requires_grad=True)</text>
</g>
<!-- Tensor0&#45;&gt;abs0 -->
<g id="edge6" class="edge">
<title>Tensor0&#45;&gt;abs0</title>
<path fill="none" stroke="black" d="M264.01,-332.86C248.94,-323.65 234.35,-311.75 224.77,-296.86 205.64,-267.12 201.55,-226.98 201.87,-196.1"/>
<polygon fill="black" stroke="black" points="205.37,-196.1 202.13,-186.01 198.37,-195.91 205.37,-196.1"/>
</g>
<!-- Tensor0&#45;&gt;square0 -->
<g id="edge5" class="edge">
<title>Tensor0&#45;&gt;square0</title>
<path fill="none" stroke="black" d="M354.77,-332.62C365.75,-323.5 378.41,-312.99 390.62,-302.85"/>
<polygon fill="black" stroke="black" points="393.09,-305.35 398.55,-296.27 388.62,-299.96 393.09,-305.35"/>
</g>
</g>
</svg>