<?xml version="1.0" encoding="UTF-8" standalone="no"?>
<!DOCTYPE svg PUBLIC "-//W3C//DTD SVG 1.1//EN"
 "http://www.w3.org/Graphics/SVG/1.1/DTD/svg11.dtd">
<!-- Generated by graphviz version 2.50.0 (0)
 -->
<!-- Pages: 1 -->
<svg width="406pt" height="194pt"
 viewBox="0.00 0.00 405.50 193.91" xmlns="http://www.w3.org/2000/svg" xmlns:xlink="http://www.w3.org/1999/xlink">
<g id="graph0" class="graph" transform="scale(1 1) rotate(0) translate(4 189.91)">
<polygon fill="white" stroke="transparent" points="-4,4 -4,-189.91 401.5,-189.91 401.5,4 -4,4"/>
<!-- list1 -->
<g id="node1" class="node">
<title>list1</title>
<ellipse fill="#deebf6" stroke="#5c9bd5" stroke-width="1.2" cx="94.75" cy="-148.43" rx="94.51" ry="37.45"/>
<text text-anchor="middle" x="94.75" y="-159.73" font-family="Times,serif" font-size="14.00">list1</text>
<text text-anchor="middle" x="94.75" y="-144.73" font-family="Times,serif" font-size="14.00">[Node] This is ...</text>
<text text-anchor="middle" x="94.75" y="-129.73" font-family="Times,serif" font-size="14.00">[1, 2, 3]</text>
</g>
<!-- eq0 -->
<g id="node2" class="node">
<title>eq0</title>
<ellipse fill="#deebf6" stroke="#5c9bd5" stroke-width="1.2" cx="198.75" cy="-37.48" rx="92.76" ry="37.45"/>
<text text-anchor="middle" x="198.75" y="-48.78" font-family="Times,serif" font-size="14.00">eq0</text>
<text text-anchor="middle" x="198.75" y="-33.78" font-family="Times,serif" font-size="14.00">[eq] This is an...</text>
<text text-anchor="middle" x="198.75" y="-18.78" font-family="Times,serif" font-size="14.00">False</text>
</g>
<!-- list1&#45;&gt;eq0 -->
<g id="edge1" class="edge">
<title>list1&#45;&gt;eq0</title>
<path fill="none" stroke="black" d="M127.66,-112.96C137.62,-102.52 148.66,-90.95 159.02,-80.1"/>
<polygon fill="black" stroke="black" points="161.69,-82.38 166.06,-72.73 156.62,-77.54 161.69,-82.38"/>
</g>
<!-- int4 -->
<g id="node3" class="node">
<title>int4</title>
<ellipse fill="#deebf6" stroke="#5c9bd5" stroke-width="1.2" cx="302.75" cy="-148.43" rx="94.51" ry="37.45"/>
<text text-anchor="middle" x="302.75" y="-159.73" font-family="Times,serif" font-size="14.00">int4</text>
<text text-anchor="middle" x="302.75" y="-144.73" font-family="Times,serif" font-size="14.00">[Node] This is ...</text>
<text text-anchor="middle" x="302.75" y="-129.73" font-family="Times,serif" font-size="14.00">1</text>
</g>
<!-- int4&#45;&gt;eq0 -->
<g id="edge2" class="edge">
<title>int4&#45;&gt;eq0</title>
<path fill="none" stroke="black" d="M269.85,-112.96C259.89,-102.52 248.84,-90.95 238.48,-80.1"/>
<polygon fill="black" stroke="black" points="240.88,-77.54 231.44,-72.73 235.82,-82.38 240.88,-77.54"/>
</g>
</g>
</svg>