<?xml version="1.0" encoding="UTF-8" standalone="no"?>
<!DOCTYPE svg PUBLIC "-//W3C//DTD SVG 1.1//EN"
 "http://www.w3.org/Graphics/SVG/1.1/DTD/svg11.dtd">
<!-- Generated by graphviz version 2.50.0 (0)
 -->
<!-- Pages: 1 -->
<svg width="965pt" height="305pt"
 viewBox="0.00 0.00 965.46 304.86" xmlns="http://www.w3.org/2000/svg" xmlns:xlink="http://www.w3.org/1999/xlink">
<g id="graph0" class="graph" transform="scale(1 1) rotate(0) translate(4 300.86)">
<polygon fill="white" stroke="transparent" points="-4,4 -4,-300.86 961.46,-300.86 961.46,4 -4,4"/>
<!-- to_list0 -->
<g id="node1" class="node">
<title>to_list0</title>
<ellipse fill="#deebf6" stroke="#5c9bd5" stroke-width="1.2" cx="705.73" cy="-148.43" rx="183.7" ry="37.45"/>
<text text-anchor="middle" x="705.73" y="-159.73" font-family="Times,serif" font-size="14.00">to_list0</text>
<text text-anchor="middle" x="705.73" y="-144.73" font-family="Times,serif" font-size="14.00">[to_list] This converts x to a list. &#160;.</text>
<text text-anchor="middle" x="705.73" y="-129.73" font-family="Times,serif" font-size="14.00">[&#39;arg2&#39;, &#39;arg1&#39;]</text>
</g>
<!-- getitem1 -->
<g id="node2" class="node">
<title>getitem1</title>
<ellipse fill="#deebf6" stroke="#5c9bd5" stroke-width="1.2" cx="478.73" cy="-37.48" rx="302.78" ry="37.45"/>
<text text-anchor="middle" x="478.73" y="-48.78" font-family="Times,serif" font-size="14.00">getitem1</text>
<text text-anchor="middle" x="478.73" y="-33.78" font-family="Times,serif" font-size="14.00">[getitem] This is a getitem operator of x based on index. .</text>
<text text-anchor="middle" x="478.73" y="-18.78" font-family="Times,serif" font-size="14.00">arg1</text>
</g>
<!-- to_list0&#45;&gt;getitem1 -->
<g id="edge1" class="edge">
<title>to_list0&#45;&gt;getitem1</title>
<path fill="none" stroke="black" d="M635.46,-113.7C612.14,-102.51 585.95,-89.94 561.76,-78.33"/>
<polygon fill="black" stroke="black" points="563.13,-75.1 552.6,-73.93 560.1,-81.41 563.13,-75.1"/>
</g>
<!-- int15 -->
<g id="node3" class="node">
<title>int15</title>
<ellipse fill="#deebf6" stroke="#5c9bd5" stroke-width="1.2" cx="251.73" cy="-148.43" rx="251.96" ry="37.45"/>
<text text-anchor="middle" x="251.73" y="-159.73" font-family="Times,serif" font-size="14.00">int15</text>
<text text-anchor="middle" x="251.73" y="-144.73" font-family="Times,serif" font-size="14.00">[Node] This is a node in a computational graph.</text>
<text text-anchor="middle" x="251.73" y="-129.73" font-family="Times,serif" font-size="14.00">1</text>
</g>
<!-- int15&#45;&gt;getitem1 -->
<g id="edge2" class="edge">
<title>int15&#45;&gt;getitem1</title>
<path fill="none" stroke="black" d="M324.49,-112.51C347.16,-101.63 372.33,-89.55 395.64,-78.36"/>
<polygon fill="black" stroke="black" points="397.32,-81.43 404.82,-73.95 394.29,-75.12 397.32,-81.43"/>
</g>
<!-- set0 -->
<g id="node4" class="node">
<title>set0</title>
<ellipse fill="#deebf6" stroke="#5c9bd5" stroke-width="1.2" cx="705.73" cy="-259.38" rx="251.96" ry="37.45"/>
<text text-anchor="middle" x="705.73" y="-270.68" font-family="Times,serif" font-size="14.00">set0</text>
<text text-anchor="middle" x="705.73" y="-255.68" font-family="Times,serif" font-size="14.00">[Node] This is a node in a computational graph.</text>
<text text-anchor="middle" x="705.73" y="-240.68" font-family="Times,serif" font-size="14.00">{&#39;arg2&#39;, &#39;arg1&#39;}</text>
</g>
<!-- set0&#45;&gt;to_list0 -->
<g id="edge3" class="edge">
<title>set0&#45;&gt;to_list0</title>
<path fill="none" stroke="black" d="M705.73,-221.8C705.73,-213.63 705.73,-204.85 705.73,-196.32"/>
<polygon fill="black" stroke="black" points="709.23,-196.1 705.73,-186.1 702.23,-196.1 709.23,-196.1"/>
</g>
</g>
</svg>