<?xml version="1.0" encoding="UTF-8" standalone="no"?>
<!DOCTYPE svg PUBLIC "-//W3C//DTD SVG 1.1//EN"
 "http://www.w3.org/Graphics/SVG/1.1/DTD/svg11.dtd">
<!-- Generated by graphviz version 2.50.0 (0)
 -->
<!-- Pages: 1 -->
<svg width="1032pt" height="194pt"
 viewBox="0.00 0.00 1032.46 193.91" xmlns="http://www.w3.org/2000/svg" xmlns:xlink="http://www.w3.org/1999/xlink">
<g id="graph0" class="graph" transform="scale(1 1) rotate(0) translate(4 189.91)">
<polygon fill="white" stroke="transparent" points="-4,4 -4,-189.91 1028.46,-189.91 1028.46,4 -4,4"/>
<!-- list0 -->
<g id="node1" class="node">
<title>list0</title>
<ellipse fill="#deebf6" stroke="#5c9bd5" stroke-width="1.2" cx="251.73" cy="-148.43" rx="251.96" ry="37.45"/>
<text text-anchor="middle" x="251.73" y="-159.73" font-family="Times,serif" font-size="14.00">list0</text>
<text text-anchor="middle" x="251.73" y="-144.73" font-family="Times,serif" font-size="14.00">[Node] This is a node in a computational graph.</text>
<text text-anchor="middle" x="251.73" y="-129.73" font-family="Times,serif" font-size="14.00">[1, 2]</text>
</g>
<!-- getitem5 -->
<g id="node2" class="node">
<title>getitem5</title>
<ellipse fill="#deebf6" stroke="#5c9bd5" stroke-width="1.2" cx="511.73" cy="-37.48" rx="302.78" ry="37.45"/>
<text text-anchor="middle" x="511.73" y="-48.78" font-family="Times,serif" font-size="14.00">getitem5</text>
<text text-anchor="middle" x="511.73" y="-33.78" font-family="Times,serif" font-size="14.00">[getitem] This is a getitem operator of x based on index. .</text>
<text text-anchor="middle" x="511.73" y="-18.78" font-family="Times,serif" font-size="14.00">2</text>
</g>
<!-- list0&#45;&gt;getitem5 -->
<g id="edge1" class="edge">
<title>list0&#45;&gt;getitem5</title>
<path fill="none" stroke="black" d="M334,-112.96C360.86,-101.7 390.89,-89.12 418.5,-77.54"/>
<polygon fill="black" stroke="black" points="419.89,-80.76 427.76,-73.66 417.19,-74.3 419.89,-80.76"/>
</g>
<!-- int19 -->
<g id="node3" class="node">
<title>int19</title>
<ellipse fill="#deebf6" stroke="#5c9bd5" stroke-width="1.2" cx="772.73" cy="-148.43" rx="251.96" ry="37.45"/>
<text text-anchor="middle" x="772.73" y="-159.73" font-family="Times,serif" font-size="14.00">int19</text>
<text text-anchor="middle" x="772.73" y="-144.73" font-family="Times,serif" font-size="14.00">[Node] This is a node in a computational graph.</text>
<text text-anchor="middle" x="772.73" y="-129.73" font-family="Times,serif" font-size="14.00">1</text>
</g>
<!-- int19&#45;&gt;getitem5 -->
<g id="edge2" class="edge">
<title>int19&#45;&gt;getitem5</title>
<path fill="none" stroke="black" d="M690.15,-112.96C663.18,-101.7 633.04,-89.12 605.32,-77.54"/>
<polygon fill="black" stroke="black" points="606.6,-74.29 596.02,-73.66 603.9,-80.74 606.6,-74.29"/>
</g>
</g>
</svg>