<?xml version="1.0" encoding="UTF-8" standalone="no"?>
<!DOCTYPE svg PUBLIC "-//W3C//DTD SVG 1.1//EN"
 "http://www.w3.org/Graphics/SVG/1.1/DTD/svg11.dtd">
<!-- Generated by graphviz version 2.50.0 (0)
 -->
<!-- Pages: 1 -->
<svg width="1134pt" height="394pt"
 viewBox="0.00 0.00 1134.37 393.86" xmlns="http://www.w3.org/2000/svg" xmlns:xlink="http://www.w3.org/1999/xlink">
<g id="graph0" class="graph" transform="scale(1 1) rotate(0) translate(4 389.86)">
<polygon fill="white" stroke="transparent" points="-4,4 -4,-389.86 1130.37,-389.86 1130.37,4 -4,4"/>
<!-- bar0 -->
<g id="node1" class="node">
<title>bar0</title>
<ellipse fill="#deebf6" stroke="#5c9bd5" stroke-width="1.2" cx="823.73" cy="-259.38" rx="302.78" ry="37.45"/>
<text text-anchor="middle" x="823.73" y="-270.68" font-family="Times,serif" font-size="14.00">bar0</text>
<text text-anchor="middle" x="823.73" y="-255.68" font-family="Times,serif" font-size="14.00">[bar] This is a test function, which does negative scaling..</text>
<text text-anchor="middle" x="823.73" y="-240.68" font-family="Times,serif" font-size="14.00">2.0</text>
</g>
<!-- multiply0 -->
<g id="node2" class="node">
<title>multiply0</title>
<ellipse fill="#deebf6" stroke="#5c9bd5" stroke-width="1.2" cx="700.73" cy="-37.48" rx="258.19" ry="37.45"/>
<text text-anchor="middle" x="700.73" y="-48.78" font-family="Times,serif" font-size="14.00">multiply0</text>
<text text-anchor="middle" x="700.73" y="-33.78" font-family="Times,serif" font-size="14.00">[multiply] This is a multiply operator of x and y. .</text>
<text text-anchor="middle" x="700.73" y="-18.78" font-family="Times,serif" font-size="14.00">6.0</text>
</g>
<!-- bar0&#45;&gt;multiply0 -->
<g id="edge1" class="edge">
<title>bar0&#45;&gt;multiply0</title>
<path fill="none" stroke="black" d="M826.94,-221.76C827.96,-190.18 825.07,-144.49 804.73,-110.95 797.61,-99.22 787.79,-88.9 777.01,-80"/>
<polygon fill="black" stroke="black" points="779.05,-77.16 769.01,-73.78 774.75,-82.68 779.05,-77.16"/>
</g>
<!-- add0 -->
<g id="node3" class="node">
<title>add0</title>
<ellipse fill="#deebf6" stroke="#5c9bd5" stroke-width="1.2" cx="577.73" cy="-148.43" rx="217.58" ry="37.45"/>
<text text-anchor="middle" x="577.73" y="-159.73" font-family="Times,serif" font-size="14.00">add0</text>
<text text-anchor="middle" x="577.73" y="-144.73" font-family="Times,serif" font-size="14.00">[add] This is an add operator of x and y. .</text>
<text text-anchor="middle" x="577.73" y="-129.73" font-family="Times,serif" font-size="14.00">3.0</text>
</g>
<!-- bar0&#45;&gt;add0 -->
<g id="edge3" class="edge">
<title>bar0&#45;&gt;add0</title>
<path fill="none" stroke="black" d="M744.2,-223.16C718.7,-211.86 690.33,-199.3 664.34,-187.79"/>
<polygon fill="black" stroke="black" points="665.45,-184.45 654.89,-183.6 662.61,-190.85 665.45,-184.45"/>
</g>
<!-- add0&#45;&gt;multiply0 -->
<g id="edge2" class="edge">
<title>add0&#45;&gt;multiply0</title>
<path fill="none" stroke="black" d="M618.35,-111.45C629.15,-101.88 640.93,-91.45 652.11,-81.55"/>
<polygon fill="black" stroke="black" points="654.57,-84.04 659.74,-74.79 649.93,-78.8 654.57,-84.04"/>
</g>
<!-- int0 -->
<g id="node4" class="node">
<title>int0</title>
<ellipse fill="#deebf6" stroke="#5c9bd5" stroke-width="1.2" cx="251.73" cy="-259.38" rx="251.96" ry="37.45"/>
<text text-anchor="middle" x="251.73" y="-270.68" font-family="Times,serif" font-size="14.00">int0</text>
<text text-anchor="middle" x="251.73" y="-255.68" font-family="Times,serif" font-size="14.00">[Node] This is a node in a computational graph.</text>
<text text-anchor="middle" x="251.73" y="-240.68" font-family="Times,serif" font-size="14.00">1</text>
</g>
<!-- int0&#45;&gt;add0 -->
<g id="edge4" class="edge">
<title>int0&#45;&gt;add0</title>
<path fill="none" stroke="black" d="M351.76,-224.95C389.37,-212.38 432.27,-198.04 470.52,-185.26"/>
<polygon fill="black" stroke="black" points="471.76,-188.54 480.13,-182.05 469.54,-181.9 471.76,-188.54"/>
</g>
<!-- float0 -->
<g id="node5" class="node">
<title>float0</title>
<polygon fill="#ffe5e5" stroke="#ff7e79" stroke-width="1.2" points="1078.23,-385.86 569.23,-385.86 569.23,-332.86 1078.23,-332.86 1078.23,-385.86"/>
<text text-anchor="middle" x="823.73" y="-370.66" font-family="Times,serif" font-size="14.00">float0</text>
<text text-anchor="middle" x="823.73" y="-355.66" font-family="Times,serif" font-size="14.00">[ParameterNode] This is a ParameterNode in a computational graph.</text>
<text text-anchor="middle" x="823.73" y="-340.66" font-family="Times,serif" font-size="14.00">&#45;1.0</text>
</g>
<!-- float0&#45;&gt;bar0 -->
<g id="edge5" class="edge">
<title>float0&#45;&gt;bar0</title>
<path fill="none" stroke="black" d="M823.73,-332.62C823.73,-324.79 823.73,-315.94 823.73,-307.18"/>
<polygon fill="black" stroke="black" points="827.23,-307.01 823.73,-297.01 820.23,-307.01 827.23,-307.01"/>
</g>
</g>
</svg>