<?xml version="1.0" encoding="UTF-8" standalone="no"?>
<!DOCTYPE svg PUBLIC "-//W3C//DTD SVG 1.1//EN"
 "http://www.w3.org/Graphics/SVG/1.1/DTD/svg11.dtd">
<!-- Generated by graphviz version 2.43.0 (0)
 -->
<!-- Title: %3 Pages: 1 -->
<svg width="907pt" height="535pt"
 viewBox="0.00 0.00 907.09 534.81" xmlns="http://www.w3.org/2000/svg" xmlns:xlink="http://www.w3.org/1999/xlink">
<g id="graph0" class="graph" transform="scale(1 1) rotate(0) translate(4 530.81)">
<title>%3</title>
<polygon fill="white" stroke="transparent" points="-4,4 -4,-530.81 903.09,-530.81 903.09,4 -4,4"/>
<!-- eval1 -->
<g id="node1" class="node">
<title>eval1</title>
<ellipse fill="#deebf6" stroke="#5c9bd5" stroke-width="1.2" cx="449.54" cy="-148.43" rx="144.5" ry="37.45"/>
<text text-anchor="middle" x="449.54" y="-159.73" font-family="Times,serif" font-size="14.00">eval1</text>
<text text-anchor="middle" x="449.54" y="-144.73" font-family="Times,serif" font-size="14.00">[eval] This operator eval...</text>
<text text-anchor="middle" x="449.54" y="-129.73" font-family="Times,serif" font-size="14.00">[1, 2, 3]</text>
</g>
<!-- eq0 -->
<g id="node2" class="node">
<title>eq0</title>
<ellipse fill="#deebf6" stroke="#5c9bd5" stroke-width="1.2" cx="535.54" cy="-37.48" rx="143.59" ry="37.45"/>
<text text-anchor="middle" x="535.54" y="-48.78" font-family="Times,serif" font-size="14.00">eq0</text>
<text text-anchor="middle" x="535.54" y="-33.78" font-family="Times,serif" font-size="14.00">[eq] This is an eq operat...</text>
<text text-anchor="middle" x="535.54" y="-18.78" font-family="Times,serif" font-size="14.00">True</text>
</g>
<!-- eval1&#45;&gt;eq0 -->
<g id="edge1" class="edge">
<title>eval1&#45;&gt;eq0</title>
<path fill="none" stroke="black" d="M477.94,-111.45C485.28,-102.16 493.26,-92.04 500.88,-82.39"/>
<polygon fill="black" stroke="black" points="503.73,-84.43 507.17,-74.42 498.23,-80.1 503.73,-84.43"/>
</g>
<!-- getitem1 -->
<g id="node3" class="node">
<title>getitem1</title>
<ellipse fill="#deebf6" stroke="#5c9bd5" stroke-width="1.2" cx="716.54" cy="-259.38" rx="140.01" ry="37.45"/>
<text text-anchor="middle" x="716.54" y="-270.68" font-family="Times,serif" font-size="14.00">getitem1</text>
<text text-anchor="middle" x="716.54" y="-255.68" font-family="Times,serif" font-size="14.00">[getitem] This is a getit...</text>
<text text-anchor="middle" x="716.54" y="-240.68" font-family="Times,serif" font-size="14.00">[1, 2, 3]</text>
</g>
<!-- getitem1&#45;&gt;eq0 -->
<g id="edge2" class="edge">
<title>getitem1&#45;&gt;eq0</title>
<path fill="none" stroke="black" d="M690.22,-222.54C667.64,-192.25 633.89,-148 602.54,-110.95 594.33,-101.25 585.26,-91.09 576.5,-81.54"/>
<polygon fill="black" stroke="black" points="578.93,-79.01 569.58,-74.04 573.79,-83.76 578.93,-79.01"/>
</g>
<!-- getitem0 -->
<g id="node4" class="node">
<title>getitem0</title>
<ellipse fill="#deebf6" stroke="#5c9bd5" stroke-width="1.2" cx="182.54" cy="-259.38" rx="140.01" ry="37.45"/>
<text text-anchor="middle" x="182.54" y="-270.68" font-family="Times,serif" font-size="14.00">getitem0</text>
<text text-anchor="middle" x="182.54" y="-255.68" font-family="Times,serif" font-size="14.00">[getitem] This is a getit...</text>
<text text-anchor="middle" x="182.54" y="-240.68" font-family="Times,serif" font-size="14.00">[1, 2, 3]</text>
</g>
<!-- getitem0&#45;&gt;eval1 -->
<g id="edge3" class="edge">
<title>getitem0&#45;&gt;eval1</title>
<path fill="none" stroke="black" d="M257.63,-227.74C290.76,-214.22 329.87,-198.26 364.11,-184.29"/>
<polygon fill="black" stroke="black" points="365.7,-187.43 373.63,-180.41 363.05,-180.94 365.7,-187.43"/>
</g>
<!-- __code0 -->
<g id="node5" class="node">
<title>__code0</title>
<polygon fill="#ffe5e5" stroke="#ff7e79" stroke-width="1.2" points="558.04,-285.88 341.04,-285.88 341.04,-232.88 558.04,-232.88 558.04,-285.88"/>
<text text-anchor="middle" x="449.54" y="-270.68" font-family="Times,serif" font-size="14.00">__code0</text>
<text text-anchor="middle" x="449.54" y="-255.68" font-family="Times,serif" font-size="14.00">[ParameterNode] This is a...</text>
<text text-anchor="middle" x="449.54" y="-240.68" font-family="Times,serif" font-size="14.00">def strange_sort_list(lst...</text>
</g>
<!-- __code0&#45;&gt;eval1 -->
<g id="edge4" class="edge">
<title>__code0&#45;&gt;eval1</title>
<path fill="none" stroke="black" d="M449.54,-232.84C449.54,-221.93 449.54,-208.84 449.54,-196.3"/>
<polygon fill="black" stroke="black" points="453.04,-195.95 449.54,-185.95 446.04,-195.95 453.04,-195.95"/>
</g>
<!-- eval0 -->
<g id="node6" class="node">
<title>eval0</title>
<ellipse fill="#deebf6" stroke="#5c9bd5" stroke-width="1.2" cx="449.54" cy="-370.34" rx="144.5" ry="37.45"/>
<text text-anchor="middle" x="449.54" y="-381.64" font-family="Times,serif" font-size="14.00">eval0</text>
<text text-anchor="middle" x="449.54" y="-366.64" font-family="Times,serif" font-size="14.00">[eval] This operator eval...</text>
<text text-anchor="middle" x="449.54" y="-351.64" font-family="Times,serif" font-size="14.00">([1, 2, 3], [1, 2, 3])</text>
</g>
<!-- eval0&#45;&gt;getitem1 -->
<g id="edge5" class="edge">
<title>eval0&#45;&gt;getitem1</title>
<path fill="none" stroke="black" d="M525.34,-338.41C558.46,-324.89 597.44,-308.98 631.54,-295.07"/>
<polygon fill="black" stroke="black" points="633.08,-298.22 641.02,-291.2 630.44,-291.74 633.08,-298.22"/>
</g>
<!-- eval0&#45;&gt;getitem0 -->
<g id="edge7" class="edge">
<title>eval0&#45;&gt;getitem0</title>
<path fill="none" stroke="black" d="M373.75,-338.41C340.63,-324.89 301.64,-308.98 267.55,-295.07"/>
<polygon fill="black" stroke="black" points="268.65,-291.74 258.07,-291.2 266,-298.22 268.65,-291.74"/>
</g>
<!-- int1 -->
<g id="node7" class="node">
<title>int1</title>
<ellipse fill="#deebf6" stroke="#5c9bd5" stroke-width="1.2" cx="755.54" cy="-370.34" rx="143.59" ry="37.45"/>
<text text-anchor="middle" x="755.54" y="-381.64" font-family="Times,serif" font-size="14.00">int1</text>
<text text-anchor="middle" x="755.54" y="-366.64" font-family="Times,serif" font-size="14.00">[Node] This is a node in ...</text>
<text text-anchor="middle" x="755.54" y="-351.64" font-family="Times,serif" font-size="14.00">1</text>
</g>
<!-- int1&#45;&gt;getitem1 -->
<g id="edge6" class="edge">
<title>int1&#45;&gt;getitem1</title>
<path fill="none" stroke="black" d="M742.45,-332.75C739.46,-324.4 736.24,-315.41 733.13,-306.71"/>
<polygon fill="black" stroke="black" points="736.33,-305.29 729.67,-297.06 729.74,-307.65 736.33,-305.29"/>
</g>
<!-- int0 -->
<g id="node8" class="node">
<title>int0</title>
<ellipse fill="#deebf6" stroke="#5c9bd5" stroke-width="1.2" cx="143.54" cy="-370.34" rx="143.59" ry="37.45"/>
<text text-anchor="middle" x="143.54" y="-381.64" font-family="Times,serif" font-size="14.00">int0</text>
<text text-anchor="middle" x="143.54" y="-366.64" font-family="Times,serif" font-size="14.00">[Node] This is a node in ...</text>
<text text-anchor="middle" x="143.54" y="-351.64" font-family="Times,serif" font-size="14.00">0</text>
</g>
<!-- int0&#45;&gt;getitem0 -->
<g id="edge8" class="edge">
<title>int0&#45;&gt;getitem0</title>
<path fill="none" stroke="black" d="M156.64,-332.75C159.63,-324.4 162.84,-315.41 165.96,-306.71"/>
<polygon fill="black" stroke="black" points="169.34,-307.65 169.42,-297.06 162.75,-305.29 169.34,-307.65"/>
</g>
<!-- __code1 -->
<g id="node9" class="node">
<title>__code1</title>
<polygon fill="#ffe5e5" stroke="#ff7e79" stroke-width="1.2" points="558.04,-526.81 341.04,-526.81 341.04,-443.81 558.04,-443.81 558.04,-526.81"/>
<text text-anchor="middle" x="449.54" y="-511.61" font-family="Times,serif" font-size="14.00">__code1</text>
<text text-anchor="middle" x="449.54" y="-496.61" font-family="Times,serif" font-size="14.00">[ParameterNode] This is a...</text>
<text text-anchor="middle" x="449.54" y="-481.61" font-family="Times,serif" font-size="14.00">def verifier():</text>
<text text-anchor="middle" x="449.54" y="-466.61" font-family="Times,serif" font-size="14.00"> &#160;&#160;&#160;&quot;&quot;&quot;</text>
<text text-anchor="middle" x="449.54" y="-451.61" font-family="Times,serif" font-size="14.00"> ...</text>
</g>
<!-- __code1&#45;&gt;eval0 -->
<g id="edge9" class="edge">
<title>__code1&#45;&gt;eval0</title>
<path fill="none" stroke="black" d="M449.54,-443.53C449.54,-435.26 449.54,-426.5 449.54,-418.05"/>
<polygon fill="black" stroke="black" points="453.04,-417.94 449.54,-407.94 446.04,-417.94 453.04,-417.94"/>
</g>
</g>
</svg>