<?xml version="1.0" encoding="UTF-8" standalone="no"?>
<!DOCTYPE svg PUBLIC "-//W3C//DTD SVG 1.1//EN"
 "http://www.w3.org/Graphics/SVG/1.1/DTD/svg11.dtd">
<!-- Generated by graphviz version 2.50.0 (0)
 -->
<!-- Pages: 1 -->
<svg width="888pt" height="394pt"
 viewBox="0.00 0.00 888.34 393.86" xmlns="http://www.w3.org/2000/svg" xmlns:xlink="http://www.w3.org/1999/xlink">
<g id="graph0" class="graph" transform="scale(1 1) rotate(0) translate(4 389.86)">
<polygon fill="white" stroke="transparent" points="-4,4 -4,-389.86 884.34,-389.86 884.34,4 -4,4"/>
<!-- bar0 -->
<g id="node1" class="node">
<title>bar0</title>
<ellipse fill="none" stroke="black" cx="645.58" cy="-259.38" rx="234.52" ry="37.45"/>
<text text-anchor="middle" x="645.58" y="-270.68" font-family="Times New Roman,serif" font-size="14.00">bar0</text>
<text text-anchor="middle" x="645.58" y="-255.68" font-family="Times New Roman,serif" font-size="14.00">[bar] This is a test function, which does negative scaling..</text>
<text text-anchor="middle" x="645.58" y="-240.68" font-family="Times New Roman,serif" font-size="14.00">2.0</text>
</g>
<!-- multiply0 -->
<g id="node2" class="node">
<title>multiply0</title>
<ellipse fill="none" stroke="black" cx="545.58" cy="-37.48" rx="205.12" ry="37.45"/>
<text text-anchor="middle" x="545.58" y="-48.78" font-family="Times New Roman,serif" font-size="14.00">multiply0</text>
<text text-anchor="middle" x="545.58" y="-33.78" font-family="Times New Roman,serif" font-size="14.00">[multiply] This is a multiply operator of x and y. .</text>
<text text-anchor="middle" x="545.58" y="-18.78" font-family="Times New Roman,serif" font-size="14.00">6.0</text>
</g>
<!-- bar0&#45;&gt;multiply0 -->
<g id="edge1" class="edge">
<title>bar0&#45;&gt;multiply0</title>
<path fill="none" stroke="black" d="M647.77,-221.73C648.08,-190.53 644.73,-145.44 626.58,-110.95 620.82,-100.02 612.71,-89.93 603.82,-80.98"/>
<polygon fill="black" stroke="black" points="606.21,-78.42 596.56,-74.05 601.38,-83.49 606.21,-78.42"/>
</g>
<!-- add0 -->
<g id="node3" class="node">
<title>add0</title>
<ellipse fill="none" stroke="black" cx="445.58" cy="-148.43" rx="171.65" ry="37.45"/>
<text text-anchor="middle" x="445.58" y="-159.73" font-family="Times New Roman,serif" font-size="14.00">add0</text>
<text text-anchor="middle" x="445.58" y="-144.73" font-family="Times New Roman,serif" font-size="14.00">[add] This is an add operator of x and y. .</text>
<text text-anchor="middle" x="445.58" y="-129.73" font-family="Times New Roman,serif" font-size="14.00">3.0</text>
</g>
<!-- bar0&#45;&gt;add0 -->
<g id="edge3" class="edge">
<title>bar0&#45;&gt;add0</title>
<path fill="none" stroke="black" d="M581.19,-223.31C560.71,-212.15 537.93,-199.74 516.98,-188.33"/>
<polygon fill="black" stroke="black" points="518.59,-185.22 508.13,-183.51 515.24,-191.37 518.59,-185.22"/>
</g>
<!-- add0&#45;&gt;multiply0 -->
<g id="edge2" class="edge">
<title>add0&#45;&gt;multiply0</title>
<path fill="none" stroke="black" d="M478.6,-111.45C487.13,-102.16 496.4,-92.05 505.26,-82.4"/>
<polygon fill="black" stroke="black" points="508.06,-84.52 512.25,-74.79 502.91,-79.79 508.06,-84.52"/>
</g>
<!-- int0 -->
<g id="node4" class="node">
<title>int0</title>
<ellipse fill="none" stroke="black" cx="196.58" cy="-259.38" rx="196.65" ry="37.45"/>
<text text-anchor="middle" x="196.58" y="-270.68" font-family="Times New Roman,serif" font-size="14.00">int0</text>
<text text-anchor="middle" x="196.58" y="-255.68" font-family="Times New Roman,serif" font-size="14.00">[Node] This is a node in a computational graph.</text>
<text text-anchor="middle" x="196.58" y="-240.68" font-family="Times New Roman,serif" font-size="14.00">1</text>
</g>
<!-- int0&#45;&gt;add0 -->
<g id="edge4" class="edge">
<title>int0&#45;&gt;add0</title>
<path fill="none" stroke="black" d="M273.32,-224.8C301.05,-212.67 332.5,-198.91 360.88,-186.49"/>
<polygon fill="black" stroke="black" points="362.61,-189.55 370.37,-182.34 359.81,-183.14 362.61,-189.55"/>
</g>
<!-- float1 -->
<g id="node5" class="node">
<title>float1</title>
<polygon fill="lightgray" stroke="black" points="841.58,-385.86 449.58,-385.86 449.58,-332.86 841.58,-332.86 841.58,-385.86"/>
<text text-anchor="middle" x="645.58" y="-370.66" font-family="Times New Roman,serif" font-size="14.00">float1</text>
<text text-anchor="middle" x="645.58" y="-355.66" font-family="Times New Roman,serif" font-size="14.00">[ParameterNode] This is a ParameterNode in a computational graph.</text>
<text text-anchor="middle" x="645.58" y="-340.66" font-family="Times New Roman,serif" font-size="14.00">&#45;1.0</text>
</g>
<!-- float1&#45;&gt;bar0 -->
<g id="edge5" class="edge">
<title>float1&#45;&gt;bar0</title>
<path fill="none" stroke="black" d="M645.58,-332.62C645.58,-324.79 645.58,-315.94 645.58,-307.18"/>
<polygon fill="black" stroke="black" points="649.08,-307.01 645.58,-297.01 642.08,-307.01 649.08,-307.01"/>
</g>
</g>
</svg>