<?xml version="1.0" encoding="UTF-8" standalone="no"?>
<!DOCTYPE svg PUBLIC "-//W3C//DTD SVG 1.1//EN"
 "http://www.w3.org/Graphics/SVG/1.1/DTD/svg11.dtd">
<!-- Generated by graphviz version 2.50.0 (0)
 -->
<!-- Pages: 1 -->
<svg width="1553pt" height="305pt"
 viewBox="0.00 0.00 1553.46 304.86" xmlns="http://www.w3.org/2000/svg" xmlns:xlink="http://www.w3.org/1999/xlink">
<g id="graph0" class="graph" transform="scale(1 1) rotate(0) translate(4 300.86)">
<polygon fill="white" stroke="transparent" points="-4,4 -4,-300.86 1549.46,-300.86 1549.46,4 -4,4"/>
<!-- add0 -->
<g id="node1" class="node">
<title>add0</title>
<ellipse fill="#deebf6" stroke="#5c9bd5" stroke-width="1.2" cx="545.73" cy="-148.43" rx="217.58" ry="37.45"/>
<text text-anchor="middle" x="545.73" y="-159.73" font-family="Times,serif" font-size="14.00">add0</text>
<text text-anchor="middle" x="545.73" y="-144.73" font-family="Times,serif" font-size="14.00">[add] This is an add operator of x and y. .</text>
<text text-anchor="middle" x="545.73" y="-129.73" font-family="Times,serif" font-size="14.00">3</text>
</g>
<!-- add2 -->
<g id="node2" class="node">
<title>add2</title>
<ellipse fill="#deebf6" stroke="#5c9bd5" stroke-width="1.2" cx="772.73" cy="-37.48" rx="217.58" ry="37.45"/>
<text text-anchor="middle" x="772.73" y="-48.78" font-family="Times,serif" font-size="14.00">add2</text>
<text text-anchor="middle" x="772.73" y="-33.78" font-family="Times,serif" font-size="14.00">[add] This is an add operator of x and y. .</text>
<text text-anchor="middle" x="772.73" y="-18.78" font-family="Times,serif" font-size="14.00">5</text>
</g>
<!-- add0&#45;&gt;add2 -->
<g id="edge1" class="edge">
<title>add0&#45;&gt;add2</title>
<path fill="none" stroke="black" d="M617.55,-112.96C641.17,-101.62 667.57,-88.95 691.81,-77.32"/>
<polygon fill="black" stroke="black" points="693.48,-80.4 700.98,-72.91 690.45,-74.08 693.48,-80.4"/>
</g>
<!-- add1 -->
<g id="node3" class="node">
<title>add1</title>
<ellipse fill="#deebf6" stroke="#5c9bd5" stroke-width="1.2" cx="999.73" cy="-148.43" rx="217.58" ry="37.45"/>
<text text-anchor="middle" x="999.73" y="-159.73" font-family="Times,serif" font-size="14.00">add1</text>
<text text-anchor="middle" x="999.73" y="-144.73" font-family="Times,serif" font-size="14.00">[add] This is an add operator of x and y. .</text>
<text text-anchor="middle" x="999.73" y="-129.73" font-family="Times,serif" font-size="14.00">2</text>
</g>
<!-- add1&#45;&gt;add2 -->
<g id="edge2" class="edge">
<title>add1&#45;&gt;add2</title>
<path fill="none" stroke="black" d="M927.91,-112.96C904.29,-101.62 877.89,-88.95 853.65,-77.32"/>
<polygon fill="black" stroke="black" points="855.01,-74.08 844.48,-72.91 851.98,-80.4 855.01,-74.08"/>
</g>
<!-- node_x0 -->
<g id="node4" class="node">
<title>node_x0</title>
<ellipse fill="#deebf6" stroke="#5c9bd5" stroke-width="1.2" cx="772.73" cy="-259.38" rx="251.96" ry="37.45"/>
<text text-anchor="middle" x="772.73" y="-270.68" font-family="Times,serif" font-size="14.00">node_x0</text>
<text text-anchor="middle" x="772.73" y="-255.68" font-family="Times,serif" font-size="14.00">[Node] This is a node in a computational graph.</text>
<text text-anchor="middle" x="772.73" y="-240.68" font-family="Times,serif" font-size="14.00">1</text>
</g>
<!-- node_x0&#45;&gt;add0 -->
<g id="edge3" class="edge">
<title>node_x0&#45;&gt;add0</title>
<path fill="none" stroke="black" d="M699.97,-223.46C676.63,-212.26 650.63,-199.78 626.74,-188.31"/>
<polygon fill="black" stroke="black" points="628.22,-185.14 617.69,-183.97 625.19,-191.45 628.22,-185.14"/>
</g>
<!-- node_x0&#45;&gt;add1 -->
<g id="edge5" class="edge">
<title>node_x0&#45;&gt;add1</title>
<path fill="none" stroke="black" d="M845.49,-223.46C868.83,-212.26 894.83,-199.78 918.72,-188.31"/>
<polygon fill="black" stroke="black" points="920.27,-191.45 927.77,-183.97 917.24,-185.14 920.27,-191.45"/>
</g>
<!-- node_y0 -->
<g id="node5" class="node">
<title>node_y0</title>
<ellipse fill="#deebf6" stroke="#5c9bd5" stroke-width="1.2" cx="251.73" cy="-259.38" rx="251.96" ry="37.45"/>
<text text-anchor="middle" x="251.73" y="-270.68" font-family="Times,serif" font-size="14.00">node_y0</text>
<text text-anchor="middle" x="251.73" y="-255.68" font-family="Times,serif" font-size="14.00">[Node] This is a node in a computational graph.</text>
<text text-anchor="middle" x="251.73" y="-240.68" font-family="Times,serif" font-size="14.00">2</text>
</g>
<!-- node_y0&#45;&gt;add0 -->
<g id="edge4" class="edge">
<title>node_y0&#45;&gt;add0</title>
<path fill="none" stroke="black" d="M343.54,-224.36C376.21,-212.25 413.12,-198.57 446.39,-186.25"/>
<polygon fill="black" stroke="black" points="447.96,-189.39 456.12,-182.64 445.53,-182.83 447.96,-189.39"/>
</g>
<!-- int0 -->
<g id="node6" class="node">
<title>int0</title>
<ellipse fill="#deebf6" stroke="#5c9bd5" stroke-width="1.2" cx="1293.73" cy="-259.38" rx="251.96" ry="37.45"/>
<text text-anchor="middle" x="1293.73" y="-270.68" font-family="Times,serif" font-size="14.00">int0</text>
<text text-anchor="middle" x="1293.73" y="-255.68" font-family="Times,serif" font-size="14.00">[Node] This is a node in a computational graph.</text>
<text text-anchor="middle" x="1293.73" y="-240.68" font-family="Times,serif" font-size="14.00">1</text>
</g>
<!-- int0&#45;&gt;add1 -->
<g id="edge6" class="edge">
<title>int0&#45;&gt;add1</title>
<path fill="none" stroke="black" d="M1201.92,-224.36C1169.25,-212.25 1132.34,-198.57 1099.07,-186.25"/>
<polygon fill="black" stroke="black" points="1099.93,-182.83 1089.34,-182.64 1097.5,-189.39 1099.93,-182.83"/>
</g>
</g>
</svg>