<?xml version="1.0" encoding="UTF-8" standalone="no"?>
<!DOCTYPE svg PUBLIC "-//W3C//DTD SVG 1.1//EN"
 "http://www.w3.org/Graphics/SVG/1.1/DTD/svg11.dtd">
<!-- Generated by graphviz version 2.50.0 (0)
 -->
<!-- Pages: 1 -->
<svg width="812pt" height="194pt"
 viewBox="0.00 0.00 812.15 193.91" xmlns="http://www.w3.org/2000/svg" xmlns:xlink="http://www.w3.org/1999/xlink">
<g id="graph0" class="graph" transform="scale(1 1) rotate(0) translate(4 189.91)">
<polygon fill="white" stroke="transparent" points="-4,4 -4,-189.91 808.15,-189.91 808.15,4 -4,4"/>
<!-- list0 -->
<g id="node1" class="node">
<title>list0</title>
<ellipse fill="#deebf6" stroke="#5c9bd5" stroke-width="1.2" cx="196.58" cy="-148.43" rx="196.65" ry="37.45"/>
<text text-anchor="middle" x="196.58" y="-159.73" font-family="Times New Roman,serif" font-size="14.00">list0</text>
<text text-anchor="middle" x="196.58" y="-144.73" font-family="Times New Roman,serif" font-size="14.00">[Node] This is a node in a computational graph.</text>
<text text-anchor="middle" x="196.58" y="-129.73" font-family="Times New Roman,serif" font-size="14.00">[1, 2]</text>
</g>
<!-- getitem5 -->
<g id="node2" class="node">
<title>getitem5</title>
<ellipse fill="#deebf6" stroke="#5c9bd5" stroke-width="1.2" cx="401.58" cy="-37.48" rx="234.52" ry="37.45"/>
<text text-anchor="middle" x="401.58" y="-48.78" font-family="Times New Roman,serif" font-size="14.00">getitem5</text>
<text text-anchor="middle" x="401.58" y="-33.78" font-family="Times New Roman,serif" font-size="14.00">[getitem] This is a getitem operator of x based on index. .</text>
<text text-anchor="middle" x="401.58" y="-18.78" font-family="Times New Roman,serif" font-size="14.00">2</text>
</g>
<!-- list0&#45;&gt;getitem5 -->
<g id="edge1" class="edge">
<title>list0&#45;&gt;getitem5</title>
<path fill="none" stroke="black" d="M261.44,-112.96C282.17,-101.94 305.29,-89.65 326.68,-78.28"/>
<polygon fill="black" stroke="black" points="328.54,-81.26 335.73,-73.47 325.25,-75.08 328.54,-81.26"/>
</g>
<!-- int19 -->
<g id="node3" class="node">
<title>int19</title>
<ellipse fill="#deebf6" stroke="#5c9bd5" stroke-width="1.2" cx="607.58" cy="-148.43" rx="196.65" ry="37.45"/>
<text text-anchor="middle" x="607.58" y="-159.73" font-family="Times New Roman,serif" font-size="14.00">int19</text>
<text text-anchor="middle" x="607.58" y="-144.73" font-family="Times New Roman,serif" font-size="14.00">[Node] This is a node in a computational graph.</text>
<text text-anchor="middle" x="607.58" y="-129.73" font-family="Times New Roman,serif" font-size="14.00">1</text>
</g>
<!-- int19&#45;&gt;getitem5 -->
<g id="edge2" class="edge">
<title>int19&#45;&gt;getitem5</title>
<path fill="none" stroke="black" d="M542.4,-112.96C521.56,-101.94 498.33,-89.65 476.84,-78.28"/>
<polygon fill="black" stroke="black" points="478.22,-75.06 467.75,-73.47 474.95,-81.24 478.22,-75.06"/>
</g>
</g>
</svg>