<?xml version="1.0" encoding="UTF-8" standalone="no"?>
<!DOCTYPE svg PUBLIC "-//W3C//DTD SVG 1.1//EN"
 "http://www.w3.org/Graphics/SVG/1.1/DTD/svg11.dtd">
<!-- Generated by graphviz version 2.50.0 (0)
 -->
<!-- Pages: 1 -->
<svg width="566pt" height="305pt"
 viewBox="0.00 0.00 566.47 304.86" xmlns="http://www.w3.org/2000/svg" xmlns:xlink="http://www.w3.org/1999/xlink">
<g id="graph0" class="graph" transform="scale(1 1) rotate(0) translate(4 300.86)">
<polygon fill="white" stroke="transparent" points="-4,4 -4,-300.86 562.47,-300.86 562.47,4 -4,4"/>
<!-- eval0 -->
<g id="node1" class="node">
<title>eval0</title>
<ellipse fill="#deebf6" stroke="#5c9bd5" stroke-width="1.2" cx="363.97" cy="-148.43" rx="113.69" ry="37.45"/>
<text text-anchor="middle" x="363.97" y="-159.73" font-family="Times New Roman,serif" font-size="14.00">eval0</text>
<text text-anchor="middle" x="363.97" y="-144.73" font-family="Times New Roman,serif" font-size="14.00">[eval] This operator eval...</text>
<text text-anchor="middle" x="363.97" y="-129.73" font-family="Times New Roman,serif" font-size="14.00">[1, 2, 3, 4]</text>
</g>
<!-- eq0 -->
<g id="node2" class="node">
<title>eq0</title>
<ellipse fill="#deebf6" stroke="#5c9bd5" stroke-width="1.2" cx="239.97" cy="-37.48" rx="113.27" ry="37.45"/>
<text text-anchor="middle" x="239.97" y="-48.78" font-family="Times New Roman,serif" font-size="14.00">eq0</text>
<text text-anchor="middle" x="239.97" y="-33.78" font-family="Times New Roman,serif" font-size="14.00">[eq] This is an eq operat...</text>
<text text-anchor="middle" x="239.97" y="-18.78" font-family="Times New Roman,serif" font-size="14.00">False</text>
</g>
<!-- eval0&#45;&gt;eq0 -->
<g id="edge1" class="edge">
<title>eval0&#45;&gt;eq0</title>
<path fill="none" stroke="black" d="M324.73,-112.96C312.63,-102.32 299.18,-90.5 286.63,-79.47"/>
<polygon fill="black" stroke="black" points="288.77,-76.7 278.94,-72.73 284.15,-81.96 288.77,-76.7"/>
</g>
<!-- list1 -->
<g id="node3" class="node">
<title>list1</title>
<ellipse fill="#deebf6" stroke="#5c9bd5" stroke-width="1.2" cx="115.97" cy="-148.43" rx="115.93" ry="37.45"/>
<text text-anchor="middle" x="115.97" y="-159.73" font-family="Times New Roman,serif" font-size="14.00">list1</text>
<text text-anchor="middle" x="115.97" y="-144.73" font-family="Times New Roman,serif" font-size="14.00">[Node] This is a node in ...</text>
<text text-anchor="middle" x="115.97" y="-129.73" font-family="Times New Roman,serif" font-size="14.00">[1, 4, 2, 3]</text>
</g>
<!-- list1&#45;&gt;eq0 -->
<g id="edge2" class="edge">
<title>list1&#45;&gt;eq0</title>
<path fill="none" stroke="black" d="M155.2,-112.96C167.3,-102.32 180.75,-90.5 193.31,-79.47"/>
<polygon fill="black" stroke="black" points="195.78,-81.96 200.99,-72.73 191.16,-76.7 195.78,-81.96"/>
</g>
<!-- list0 -->
<g id="node4" class="node">
<title>list0</title>
<ellipse fill="#deebf6" stroke="#5c9bd5" stroke-width="1.2" cx="253.97" cy="-259.38" rx="115.93" ry="37.45"/>
<text text-anchor="middle" x="253.97" y="-270.68" font-family="Times New Roman,serif" font-size="14.00">list0</text>
<text text-anchor="middle" x="253.97" y="-255.68" font-family="Times New Roman,serif" font-size="14.00">[Node] This is a node in ...</text>
<text text-anchor="middle" x="253.97" y="-240.68" font-family="Times New Roman,serif" font-size="14.00">[1, 2, 3, 4]</text>
</g>
<!-- list0&#45;&gt;eval0 -->
<g id="edge3" class="edge">
<title>list0&#45;&gt;eval0</title>
<path fill="none" stroke="black" d="M289.07,-223.61C299.39,-213.39 310.79,-202.1 321.52,-191.47"/>
<polygon fill="black" stroke="black" points="324.17,-193.77 328.81,-184.25 319.25,-188.8 324.17,-193.77"/>
</g>
<!-- __code0 -->
<g id="node5" class="node">
<title>__code0</title>
<polygon fill="#ffe5e5" stroke="#ff7e79" stroke-width="1.2" points="558.47,-285.88 387.47,-285.88 387.47,-232.88 558.47,-232.88 558.47,-285.88"/>
<text text-anchor="middle" x="472.97" y="-270.68" font-family="Times New Roman,serif" font-size="14.00">__code0</text>
<text text-anchor="middle" x="472.97" y="-255.68" font-family="Times New Roman,serif" font-size="14.00">[ParameterNode] This is a...</text>
<text text-anchor="middle" x="472.97" y="-240.68" font-family="Times New Roman,serif" font-size="14.00">def strange_sort_list(lst...</text>
</g>
<!-- __code0&#45;&gt;eval0 -->
<g id="edge4" class="edge">
<title>__code0&#45;&gt;eval0</title>
<path fill="none" stroke="black" d="M447.41,-232.84C435.09,-220.52 419.98,-205.42 406.02,-191.47"/>
<polygon fill="black" stroke="black" points="408.4,-188.89 398.85,-184.3 403.45,-193.85 408.4,-188.89"/>
</g>
</g>
</svg>