<?xml version="1.0" encoding="UTF-8" standalone="no"?>
<!DOCTYPE svg PUBLIC "-//W3C//DTD SVG 1.1//EN"
 "http://www.w3.org/Graphics/SVG/1.1/DTD/svg11.dtd">
<!-- Generated by graphviz version 12.0.0 (20240704.0754)
 -->
<!-- Pages: 1 -->
<svg width="334pt" height="207pt"
 viewBox="0.00 0.00 334.15 206.63" xmlns="http://www.w3.org/2000/svg" xmlns:xlink="http://www.w3.org/1999/xlink">
<g id="graph0" class="graph" transform="scale(1 1) rotate(0) translate(4 202.63)">
<polygon fill="white" stroke="none" points="-4,4 -4,-202.63 330.15,-202.63 330.15,4 -4,4"/>
<!-- list2 -->
<g id="node1" class="node">
<title>list2</title>
<ellipse fill="#deebf6" stroke="#5c9bd5" stroke-width="1.2" cx="77.07" cy="-157.98" rx="77.07" ry="40.66"/>
<text text-anchor="middle" x="77.07" y="-169.43" font-family="Times,serif" font-size="14.00">list2</text>
<text text-anchor="middle" x="77.07" y="-152.93" font-family="Times,serif" font-size="14.00">[Node] This is ...</text>
<text text-anchor="middle" x="77.07" y="-136.43" font-family="Times,serif" font-size="14.00">[1, 2, 3]</text>
</g>
<!-- eq3 -->
<g id="node2" class="node">
<title>eq3</title>
<ellipse fill="#deebf6" stroke="#5c9bd5" stroke-width="1.2" cx="163.07" cy="-40.66" rx="74.42" ry="40.66"/>
<text text-anchor="middle" x="163.07" y="-52.11" font-family="Times,serif" font-size="14.00">eq3</text>
<text text-anchor="middle" x="163.07" y="-35.61" font-family="Times,serif" font-size="14.00">[eq] This is an...</text>
<text text-anchor="middle" x="163.07" y="-19.11" font-family="Times,serif" font-size="14.00">False</text>
</g>
<!-- list2&#45;&gt;eq3 -->
<g id="edge1" class="edge">
<title>list2&#45;&gt;eq3</title>
<path fill="none" stroke="black" d="M104.76,-119.85C112.35,-109.67 120.68,-98.5 128.61,-87.87"/>
<polygon fill="black" stroke="black" points="131.36,-90.03 134.54,-79.92 125.75,-85.85 131.36,-90.03"/>
</g>
<!-- int27 -->
<g id="node3" class="node">
<title>int27</title>
<ellipse fill="#deebf6" stroke="#5c9bd5" stroke-width="1.2" cx="249.07" cy="-157.98" rx="77.07" ry="40.66"/>
<text text-anchor="middle" x="249.07" y="-169.43" font-family="Times,serif" font-size="14.00">int27</text>
<text text-anchor="middle" x="249.07" y="-152.93" font-family="Times,serif" font-size="14.00">[Node] This is ...</text>
<text text-anchor="middle" x="249.07" y="-136.43" font-family="Times,serif" font-size="14.00">1</text>
</g>
<!-- int27&#45;&gt;eq3 -->
<g id="edge2" class="edge">
<title>int27&#45;&gt;eq3</title>
<path fill="none" stroke="black" d="M221.39,-119.85C213.79,-109.67 205.47,-98.5 197.54,-87.87"/>
<polygon fill="black" stroke="black" points="200.4,-85.85 191.61,-79.92 194.78,-90.03 200.4,-85.85"/>
</g>
</g>
</svg>