<?xml version="1.0" encoding="UTF-8" standalone="no"?>
<!DOCTYPE svg PUBLIC "-//W3C//DTD SVG 1.1//EN"
 "http://www.w3.org/Graphics/SVG/1.1/DTD/svg11.dtd">
<!-- Generated by graphviz version 2.43.0 (0)
 -->
<!-- Title: %3 Pages: 1 -->
<svg width="845pt" height="305pt"
 viewBox="0.00 0.00 845.11 304.86" xmlns="http://www.w3.org/2000/svg" xmlns:xlink="http://www.w3.org/1999/xlink">
<g id="graph0" class="graph" transform="scale(1 1) rotate(0) translate(4 300.86)">
<title>%3</title>
<polygon fill="white" stroke="transparent" points="-4,4 -4,-300.86 841.11,-300.86 841.11,4 -4,4"/>
<!-- ModelWrapper1 -->
<g id="node1" class="node">
<title>ModelWrapper1</title>
<ellipse fill="#deebf6" stroke="#5c9bd5" stroke-width="1.2" cx="130.11" cy="-148.43" rx="130.22" ry="37.45"/>
<text text-anchor="middle" x="130.11" y="-159.73" font-family="Times,serif" font-size="14.00">ModelWrapper1</text>
<text text-anchor="middle" x="130.11" y="-144.73" font-family="Times,serif" font-size="14.00">[Node] This is a nod...</text>
<text text-anchor="middle" x="130.11" y="-129.73" font-family="Times,serif" font-size="14.00">&lt;opto.trace.modules....</text>
</g>
<!-- Agent.select_coordinate0 -->
<g id="node2" class="node">
<title>Agent.select_coordinate0</title>
<ellipse fill="#deebf6" stroke="#5c9bd5" stroke-width="1.2" cx="366.11" cy="-37.48" rx="139.1" ry="37.45"/>
<text text-anchor="middle" x="366.11" y="-48.78" font-family="Times,serif" font-size="14.00">Agent.select_coordinate0</text>
<text text-anchor="middle" x="366.11" y="-33.78" font-family="Times,serif" font-size="14.00">[Agent.select_coordi...</text>
<text text-anchor="middle" x="366.11" y="-18.78" font-family="Times,serif" font-size="14.00">None</text>
</g>
<!-- ModelWrapper1&#45;&gt;Agent.select_coordinate0 -->
<g id="edge1" class="edge">
<title>ModelWrapper1&#45;&gt;Agent.select_coordinate0</title>
<path fill="none" stroke="black" d="M197.42,-116.35C225.7,-103.3 258.76,-88.03 288.1,-74.49"/>
<polygon fill="black" stroke="black" points="289.86,-77.53 297.48,-70.16 286.93,-71.18 289.86,-77.53"/>
</g>
<!-- list0 -->
<g id="node3" class="node">
<title>list0</title>
<ellipse fill="#deebf6" stroke="#5c9bd5" stroke-width="1.2" cx="231.11" cy="-259.38" rx="122.16" ry="37.45"/>
<text text-anchor="middle" x="231.11" y="-270.68" font-family="Times,serif" font-size="14.00">list0</text>
<text text-anchor="middle" x="231.11" y="-255.68" font-family="Times,serif" font-size="14.00">[Node] This is a nod...</text>
<text text-anchor="middle" x="231.11" y="-240.68" font-family="Times,serif" font-size="14.00">[[&#39;X&#39;, &#39;.&#39;, &#39;.&#39;, &#39;.&#39;...</text>
</g>
<!-- list0&#45;&gt;Agent.select_coordinate0 -->
<g id="edge2" class="edge">
<title>list0&#45;&gt;Agent.select_coordinate0</title>
<path fill="none" stroke="black" d="M250.15,-222.31C256.24,-210.7 262.99,-197.78 269.11,-185.91 286.22,-152.71 286.76,-142.27 307.11,-110.95 313.4,-101.27 320.75,-91.37 328.09,-82.13"/>
<polygon fill="black" stroke="black" points="330.94,-84.17 334.5,-74.19 325.5,-79.77 330.94,-84.17"/>
</g>
<!-- Agent.reason0 -->
<g id="node4" class="node">
<title>Agent.reason0</title>
<ellipse fill="#deebf6" stroke="#5c9bd5" stroke-width="1.2" cx="444.11" cy="-148.43" rx="127.97" ry="37.45"/>
<text text-anchor="middle" x="444.11" y="-159.73" font-family="Times,serif" font-size="14.00">Agent.reason0</text>
<text text-anchor="middle" x="444.11" y="-144.73" font-family="Times,serif" font-size="14.00">[Agent.reason] Given...</text>
<text text-anchor="middle" x="444.11" y="-129.73" font-family="Times,serif" font-size="14.00">None</text>
</g>
<!-- list0&#45;&gt;Agent.reason0 -->
<g id="edge6" class="edge">
<title>list0&#45;&gt;Agent.reason0</title>
<path fill="none" stroke="black" d="M292.72,-226.87C317.77,-214.05 346.89,-199.16 372.86,-185.88"/>
<polygon fill="black" stroke="black" points="374.59,-188.92 381.9,-181.25 371.4,-182.69 374.59,-188.92"/>
</g>
<!-- Agent.reason0&#45;&gt;Agent.select_coordinate0 -->
<g id="edge3" class="edge">
<title>Agent.reason0&#45;&gt;Agent.select_coordinate0</title>
<path fill="none" stroke="black" d="M418.35,-111.45C411.76,-102.25 404.6,-92.24 397.75,-82.68"/>
<polygon fill="black" stroke="black" points="400.5,-80.51 391.84,-74.42 394.81,-84.58 400.5,-80.51"/>
</g>
<!-- __code0 -->
<g id="node5" class="node">
<title>__code0</title>
<polygon fill="#ffe5e5" stroke="#ff7e79" stroke-width="1.2" points="778.11,-174.93 590.11,-174.93 590.11,-121.93 778.11,-121.93 778.11,-174.93"/>
<text text-anchor="middle" x="684.11" y="-159.73" font-family="Times,serif" font-size="14.00">__code0</text>
<text text-anchor="middle" x="684.11" y="-144.73" font-family="Times,serif" font-size="14.00">[ParameterNode] This...</text>
<text text-anchor="middle" x="684.11" y="-129.73" font-family="Times,serif" font-size="14.00">def select_coordinat...</text>
</g>
<!-- __code0&#45;&gt;Agent.select_coordinate0 -->
<g id="edge4" class="edge">
<title>__code0&#45;&gt;Agent.select_coordinate0</title>
<path fill="none" stroke="black" d="M612.4,-121.88C601.91,-118.19 591.24,-114.45 581.11,-110.95 542.15,-97.49 499.11,-82.92 461.84,-70.4"/>
<polygon fill="black" stroke="black" points="462.59,-66.96 452,-67.1 460.37,-73.6 462.59,-66.96"/>
</g>
<!-- ModelWrapper0 -->
<g id="node6" class="node">
<title>ModelWrapper0</title>
<ellipse fill="#deebf6" stroke="#5c9bd5" stroke-width="1.2" cx="501.11" cy="-259.38" rx="130.22" ry="37.45"/>
<text text-anchor="middle" x="501.11" y="-270.68" font-family="Times,serif" font-size="14.00">ModelWrapper0</text>
<text text-anchor="middle" x="501.11" y="-255.68" font-family="Times,serif" font-size="14.00">[Node] This is a nod...</text>
<text text-anchor="middle" x="501.11" y="-240.68" font-family="Times,serif" font-size="14.00">&lt;opto.trace.modules....</text>
</g>
<!-- ModelWrapper0&#45;&gt;Agent.reason0 -->
<g id="edge5" class="edge">
<title>ModelWrapper0&#45;&gt;Agent.reason0</title>
<path fill="none" stroke="black" d="M482.13,-222.1C477.51,-213.28 472.52,-203.74 467.72,-194.57"/>
<polygon fill="black" stroke="black" points="470.74,-192.79 463,-185.55 464.54,-196.03 470.74,-192.79"/>
</g>
<!-- __code1 -->
<g id="node7" class="node">
<title>__code1</title>
<polygon fill="#ffe5e5" stroke="#ff7e79" stroke-width="1.2" points="837.11,-285.88 649.11,-285.88 649.11,-232.88 837.11,-232.88 837.11,-285.88"/>
<text text-anchor="middle" x="743.11" y="-270.68" font-family="Times,serif" font-size="14.00">__code1</text>
<text text-anchor="middle" x="743.11" y="-255.68" font-family="Times,serif" font-size="14.00">[ParameterNode] This...</text>
<text text-anchor="middle" x="743.11" y="-240.68" font-family="Times,serif" font-size="14.00">def reason(self, map...</text>
</g>
<!-- __code1&#45;&gt;Agent.reason0 -->
<g id="edge7" class="edge">
<title>__code1&#45;&gt;Agent.reason0</title>
<path fill="none" stroke="black" d="M673.01,-232.84C630.95,-217.51 577.08,-197.88 532.16,-181.52"/>
<polygon fill="black" stroke="black" points="533.32,-178.21 522.72,-178.08 530.92,-184.79 533.32,-178.21"/>
</g>
</g>
</svg>