<?xml version="1.0" encoding="UTF-8" standalone="no"?>
<!DOCTYPE svg PUBLIC "-//W3C//DTD SVG 1.1//EN"
 "http://www.w3.org/Graphics/SVG/1.1/DTD/svg11.dtd">
<!-- Generated by graphviz version 2.40.1 (20161225.0304)
 -->
<!-- Title: %3 Pages: 1 -->
<svg width="933pt" height="394pt"
 viewBox="0.00 0.00 932.80 393.86" xmlns="http://www.w3.org/2000/svg" xmlns:xlink="http://www.w3.org/1999/xlink">
<g id="graph0" class="graph" transform="scale(1 1) rotate(0) translate(4 389.86)">
<title>%3</title>
<polygon fill="#ffffff" stroke="transparent" points="-4,4 -4,-389.86 928.796,-389.86 928.796,4 -4,4"/>
<!-- abs0 -->
<g id="node1" class="node">
<title>abs0</title>
<ellipse fill="#deebf6" stroke="#5c9bd5" stroke-width="1.2" cx="160.5132" cy="-148.43" rx="160.5265" ry="37.4533"/>
<text text-anchor="middle" x="160.5132" y="-159.73" font-family="Times,serif" font-size="14.00" fill="#000000">abs0</text>
<text text-anchor="middle" x="160.5132" y="-144.73" font-family="Times,serif" font-size="14.00" fill="#000000">[abs] .</text>
<text text-anchor="middle" x="160.5132" y="-129.73" font-family="Times,serif" font-size="14.00" fill="#000000">tensor(1., grad_fn=&lt;AbsBackward0&gt;)</text>
</g>
<!-- add0 -->
<g id="node2" class="node">
<title>add0</title>
<ellipse fill="#deebf6" stroke="#5c9bd5" stroke-width="1.2" cx="352.5132" cy="-37.4767" rx="180.1247" ry="37.4533"/>
<text text-anchor="middle" x="352.5132" y="-48.7767" font-family="Times,serif" font-size="14.00" fill="#000000">add0</text>
<text text-anchor="middle" x="352.5132" y="-33.7767" font-family="Times,serif" font-size="14.00" fill="#000000">[add] This is an add operator of x and y. .</text>
<text text-anchor="middle" x="352.5132" y="-18.7767" font-family="Times,serif" font-size="14.00" fill="#000000">tensor(1.5000, grad_fn=&lt;AddBackward0&gt;)</text>
</g>
<!-- abs0&#45;&gt;add0 -->
<g id="edge1" class="edge">
<title>abs0&#45;&gt;add0</title>
<path fill="none" stroke="#000000" d="M220.7364,-113.6281C240.2794,-102.3346 262.1306,-89.7071 282.3337,-78.0321"/>
<polygon fill="#000000" stroke="#000000" points="284.2746,-80.953 291.1817,-72.9191 280.7722,-74.8922 284.2746,-80.953"/>
</g>
<!-- multiply0 -->
<g id="node3" class="node">
<title>multiply0</title>
<ellipse fill="#deebf6" stroke="#5c9bd5" stroke-width="1.2" cx="545.5132" cy="-148.43" rx="206.4504" ry="37.4533"/>
<text text-anchor="middle" x="545.5132" y="-159.73" font-family="Times,serif" font-size="14.00" fill="#000000">multiply0</text>
<text text-anchor="middle" x="545.5132" y="-144.73" font-family="Times,serif" font-size="14.00" fill="#000000">[multiply] This is a multiply operator of x and y. .</text>
<text text-anchor="middle" x="545.5132" y="-129.73" font-family="Times,serif" font-size="14.00" fill="#000000">tensor(0.5000, grad_fn=&lt;MulBackward0&gt;)</text>
</g>
<!-- multiply0&#45;&gt;add0 -->
<g id="edge2" class="edge">
<title>multiply0&#45;&gt;add0</title>
<path fill="none" stroke="#000000" d="M483.1182,-112.5598C463.9216,-101.524 442.6586,-89.3001 422.9611,-77.9763"/>
<polygon fill="#000000" stroke="#000000" points="424.4479,-74.7939 414.034,-72.8442 420.9591,-80.8626 424.4479,-74.7939"/>
</g>
<!-- square0 -->
<g id="node4" class="node">
<title>square0</title>
<ellipse fill="#deebf6" stroke="#5c9bd5" stroke-width="1.2" cx="350.5132" cy="-259.3833" rx="161.8549" ry="37.4533"/>
<text text-anchor="middle" x="350.5132" y="-270.6833" font-family="Times,serif" font-size="14.00" fill="#000000">square0</text>
<text text-anchor="middle" x="350.5132" y="-255.6833" font-family="Times,serif" font-size="14.00" fill="#000000">[square] .</text>
<text text-anchor="middle" x="350.5132" y="-240.6833" font-family="Times,serif" font-size="14.00" fill="#000000">tensor(1., grad_fn=&lt;PowBackward0&gt;)</text>
</g>
<!-- square0&#45;&gt;multiply0 -->
<g id="edge3" class="edge">
<title>square0&#45;&gt;multiply0</title>
<path fill="none" stroke="#000000" d="M411.6774,-224.5814C431.3311,-213.3986 453.2835,-200.9079 473.6332,-189.3291"/>
<polygon fill="#000000" stroke="#000000" points="475.5888,-192.2434 482.5494,-184.2559 472.1269,-186.1593 475.5888,-192.2434"/>
</g>
<!-- Tensor1 -->
<g id="node5" class="node">
<title>Tensor1</title>
<ellipse fill="#deebf6" stroke="#5c9bd5" stroke-width="1.2" cx="727.5132" cy="-259.3833" rx="197.0658" ry="37.4533"/>
<text text-anchor="middle" x="727.5132" y="-270.6833" font-family="Times,serif" font-size="14.00" fill="#000000">Tensor1</text>
<text text-anchor="middle" x="727.5132" y="-255.6833" font-family="Times,serif" font-size="14.00" fill="#000000">[Node] This is a node in a computational graph.</text>
<text text-anchor="middle" x="727.5132" y="-240.6833" font-family="Times,serif" font-size="14.00" fill="#000000">tensor(0.5000, requires_grad=True)</text>
</g>
<!-- Tensor1&#45;&gt;multiply0 -->
<g id="edge4" class="edge">
<title>Tensor1&#45;&gt;multiply0</title>
<path fill="none" stroke="#000000" d="M668.6744,-223.5132C651.0028,-212.7399 631.4742,-200.8346 613.2746,-189.7396"/>
<polygon fill="#000000" stroke="#000000" points="614.8213,-186.5834 604.461,-184.3665 611.1776,-192.5603 614.8213,-186.5834"/>
</g>
<!-- Tensor0 -->
<g id="node6" class="node">
<title>Tensor0</title>
<polygon fill="#ffe5e5" stroke="#ff7e79" stroke-width="1.2" points="452.0132,-385.86 59.0132,-385.86 59.0132,-332.86 452.0132,-332.86 452.0132,-385.86"/>
<text text-anchor="middle" x="255.5132" y="-370.66" font-family="Times,serif" font-size="14.00" fill="#000000">Tensor0</text>
<text text-anchor="middle" x="255.5132" y="-355.66" font-family="Times,serif" font-size="14.00" fill="#000000">[ParameterNode] This is a ParameterNode in a computational graph.</text>
<text text-anchor="middle" x="255.5132" y="-340.66" font-family="Times,serif" font-size="14.00" fill="#000000">tensor(1., requires_grad=True)</text>
</g>
<!-- Tensor0&#45;&gt;abs0 -->
<g id="edge6" class="edge">
<title>Tensor0&#45;&gt;abs0</title>
<path fill="none" stroke="#000000" d="M212.061,-332.8356C199.5916,-323.0738 187.2814,-310.914 179.5132,-296.86 162.65,-266.3512 158.2445,-227.0471 157.8701,-196.5491"/>
<polygon fill="#000000" stroke="#000000" points="161.3708,-196.1651 157.892,-186.1577 154.3709,-196.1503 161.3708,-196.1651"/>
</g>
<!-- Tensor0&#45;&gt;square0 -->
<g id="edge5" class="edge">
<title>Tensor0&#45;&gt;square0</title>
<path fill="none" stroke="#000000" d="M280.7221,-332.8305C289.22,-323.8875 298.9489,-313.6489 308.3907,-303.7125"/>
<polygon fill="#000000" stroke="#000000" points="311.1786,-305.8595 315.5298,-296.1994 306.1042,-301.0377 311.1786,-305.8595"/>
</g>
</g>
</svg>