<?xml version="1.0" standalone="no"?><!DOCTYPE svg PUBLIC "-//W3C//DTD SVG 1.1//EN" "http://www.w3.org/Graphics/SVG/1.1/DTD/svg11.dtd"><svg t="1737463423311" class="icon" viewBox="0 0 1024 1024" version="1.1" xmlns="http://www.w3.org/2000/svg" p-id="9156" xmlns:xlink="http://www.w3.org/1999/xlink" width="256" height="256"><path d="M512 128C299.92 128 128 299.92 128 512s171.92 384 384 384 384-171.92 384-384S724.08 128 512 128zM732.624 392.4 472.4 652.624c-9.36 9.376-24.56 9.376-33.936 0l-147.072-147.088c-9.376-9.376-9.376-24.576 0-33.936 9.376-9.376 24.576-9.376 33.936 0l130.112 130.112 243.264-243.264c9.36-9.376 24.56-9.376 33.936 0S742 383.024 732.624 392.4z" p-id="9157" fill="#707070"></path></svg>